<svg id="Component_350_1" data-name="Component 350 – 1" xmlns="http://www.w3.org/2000/svg" xmlns:xlink="http://www.w3.org/1999/xlink" width="23.381" height="24.69" viewBox="0 0 23.381 24.69">
  <defs>
    <linearGradient id="linear-gradient" x1="0.5" x2="0.5" y2="1" gradientUnits="objectBoundingBox">
      <stop offset="0" stop-color="#00dbff"/>
      <stop offset="1" stop-color="#10a5f5"/>
    </linearGradient>
    <linearGradient id="linear-gradient-3" x1="0.923" y1="0.5" x2="0.075" y2="0.5" xlink:href="#linear-gradient"/>
  </defs>
  <g id="Polygon_34" data-name="Polygon 34" transform="translate(0 13.414) rotate(-20)" fill="url(#linear-gradient)">
    <path d="M 6 10.90818691253662 L 4.404489994049072 7.811019897460938 L 4.331210136413574 7.668789863586426 L 4.188980102539062 7.595510005950928 L 1.091813564300537 6 L 4.188980102539062 4.404489994049072 L 4.331210136413574 4.331210136413574 L 4.404489994049072 4.188980102539062 L 6 1.091813564300537 L 7.595510005950928 4.188980102539062 L 7.668789863586426 4.331210136413574 L 7.811019897460938 4.404489994049072 L 10.90818691253662 6 L 7.811019897460938 7.595510005950928 L 7.668789863586426 7.668789863586426 L 7.595510005950928 7.811019897460938 L 6 10.90818691253662 Z" stroke="none"/>
    <path d="M 6 2.183608055114746 L 4.84896993637085 4.417960166931152 L 4.70242977142334 4.70242977142334 L 4.417960166931152 4.84896993637085 L 2.183608055114746 6 L 4.417960166931152 7.15103006362915 L 4.70242977142334 7.29757022857666 L 4.84896993637085 7.582039833068848 L 6 9.81639289855957 L 7.15103006362915 7.582039833068848 L 7.29757022857666 7.29757022857666 L 7.582039833068848 7.15103006362915 L 9.81639289855957 6 L 7.582039833068848 4.84896993637085 L 7.29757022857666 4.70242977142334 L 7.15103006362915 4.417960166931152 L 6 2.183608055114746 M 6 0 L 8.039999961853027 3.960000038146973 L 12 6 L 8.039999961853027 8.039999961853027 L 6 12 L 3.960000038146973 8.039999961853027 L 0 6 L 3.960000038146973 3.960000038146973 L 6 0 Z" stroke="none"/>
  </g>
  <g id="Polygon_35" data-name="Polygon 35" transform="matrix(0.94, 0.342, -0.342, 0.94, 12.104, 9.31)" fill="url(#linear-gradient)">
    <path d="M 6 10.90818691253662 L 4.404489994049072 7.811019897460938 L 4.331210136413574 7.668789863586426 L 4.188980102539062 7.595510005950928 L 1.091813564300537 6 L 4.188980102539062 4.404489994049072 L 4.331210136413574 4.331210136413574 L 4.404489994049072 4.188980102539062 L 6 1.091813564300537 L 7.595510005950928 4.188980102539062 L 7.668789863586426 4.331210136413574 L 7.811019897460938 4.404489994049072 L 10.90818691253662 6 L 7.811019897460938 7.595510005950928 L 7.668789863586426 7.668789863586426 L 7.595510005950928 7.811019897460938 L 6 10.90818691253662 Z" stroke="none"/>
    <path d="M 6 2.183608055114746 L 4.84896993637085 4.417960166931152 L 4.70242977142334 4.70242977142334 L 4.417960166931152 4.84896993637085 L 2.183608055114746 6 L 4.417960166931152 7.15103006362915 L 4.70242977142334 7.29757022857666 L 4.84896993637085 7.582039833068848 L 6 9.81639289855957 L 7.15103006362915 7.582039833068848 L 7.29757022857666 7.29757022857666 L 7.582039833068848 7.15103006362915 L 9.81639289855957 6 L 7.582039833068848 4.84896993637085 L 7.29757022857666 4.70242977142334 L 7.15103006362915 4.417960166931152 L 6 2.183608055114746 M 6 0 L 8.039999961853027 3.960000038146973 L 12 6 L 8.039999961853027 8.039999961853027 L 6 12 L 3.960000038146973 8.039999961853027 L 0 6 L 3.960000038146973 3.960000038146973 L 6 0 Z" stroke="none"/>
  </g>
  <g id="Polygon_33" data-name="Polygon 33" transform="translate(1.69)" fill="url(#linear-gradient-3)">
    <path d="M 12.01029968261719 18.74599456787109 C 11.74530029296875 18.74601554870605 11.4814395904541 18.67786407470703 11.24724006652832 18.5489444732666 C 10.86622047424316 18.33918380737305 10.43492984771729 18.22831535339355 10 18.22831535339355 C 9.565059661865234 18.22831535339355 9.133769989013672 18.33918380737305 8.752750396728516 18.5489444732666 C 8.518600463867188 18.6778450012207 8.254719734191895 18.74598503112793 7.989649772644043 18.74599456787109 C 7.405839920043945 18.74602508544922 6.870669841766357 18.42752456665039 6.59296989440918 17.914794921875 L 6.581069946289062 17.89283561706543 C 6.159090042114258 17.1136646270752 5.379469871520996 16.60986518859863 4.495649814605713 16.54522514343262 L 4.475289821624756 16.54373550415039 C 3.60575008392334 16.48013496398926 2.947819948196411 15.72081470489502 3.008630037307739 14.85107517242432 L 3.013220071792603 14.78538513183594 C 3.07436990737915 13.91101455688477 2.693769931793213 13.07296466827393 1.995120048522949 12.54361438751221 L 1.945680022239685 12.50616455078125 C 1.25655996799469 11.98402500152588 1.114179968833923 10.99371433258057 1.628309965133667 10.29858493804932 L 1.672850012779236 10.23836517333984 C 2.192470073699951 9.535834312438965 2.322429895401001 8.62685489654541 2.020509958267212 7.806854724884033 L 1.994109988212585 7.735184669494629 C 1.694460034370422 6.921334743499756 2.110719919204712 6.009804725646973 2.922039985656738 5.703274726867676 L 2.960999965667725 5.688554763793945 C 3.785330057144165 5.377104759216309 4.388609886169434 4.677014827728271 4.574830055236816 3.815794706344604 L 4.584690093994141 3.770164728164673 C 4.741479873657227 3.04505467414856 5.392670154571533 2.518744707107544 6.133059978485107 2.518744707107544 C 6.246890068054199 2.518744707107544 6.361670017242432 2.531234741210938 6.474209785461426 2.555864810943604 L 6.474470138549805 2.555924654006958 L 6.479450225830078 2.557004690170288 C 6.660319805145264 2.596584796905518 6.846340179443359 2.616724729537964 7.031839847564697 2.616734743118286 C 7.716690063476562 2.616764783859253 8.386070251464844 2.337824821472168 8.868350028991699 1.851424813270569 L 8.873780250549316 1.845944762229919 C 9.17372989654541 1.543434739112854 9.573760032653809 1.376744747161865 10 1.376744747161865 C 10.42623996734619 1.376744747161865 10.82627010345459 1.543434739112854 11.12639045715332 1.846114754676819 L 11.13148021697998 1.85125470161438 C 11.61390972137451 2.337784767150879 12.28328037261963 2.616724729537964 12.9681396484375 2.616724729537964 C 13.15361022949219 2.616724729537964 13.33963966369629 2.59659481048584 13.5210599899292 2.556894779205322 L 13.52128982543945 2.556844711303711 L 13.52626037597656 2.555754661560059 C 13.63831996917725 2.531224727630615 13.75310039520264 2.518734693527222 13.86692047119141 2.518734693527222 C 14.60733032226562 2.518734693527222 15.25852012634277 3.045044660568237 15.41530990600586 3.770174741744995 L 15.42516040802002 3.815754652023315 C 15.61139965057373 4.677024841308594 16.21467018127441 5.377114772796631 17.0389404296875 5.688524723052979 L 17.07792091369629 5.703254699707031 C 17.88928031921387 6.009804725646973 18.30554008483887 6.921334743499756 18.0058708190918 7.735214710235596 L 17.97949028015137 7.806874752044678 C 17.67757034301758 8.626864433288574 17.80752944946289 9.535834312438965 18.32715034484863 10.23836517333984 L 18.37166023254395 10.29855442047119 C 18.88582038879395 10.99371433258057 18.74344062805176 11.98402500152588 18.0543098449707 12.50616455078125 L 18.00489044189453 12.54361438751221 C 17.30623054504395 13.07296466827393 16.92563056945801 13.91101455688477 16.98678016662598 14.78540515899658 L 16.99136924743652 14.85106468200684 C 17.05217933654785 15.72081470489502 16.39423942565918 16.48013496398926 15.52470970153809 16.54373550415039 L 15.50432968139648 16.54522514343262 C 14.62051963806152 16.6098747253418 13.84090995788574 17.11367416381836 13.41888046264648 17.89290428161621 L 13.40697956085205 17.91488456726074 C 13.12936019897461 18.42746543884277 12.59416961669922 18.74596405029297 12.01029968261719 18.74599456787109 Z" stroke="none"/>
    <path d="M 10 1.876745223999023 C 9.708109855651855 1.876745223999023 9.43418025970459 1.990894317626953 9.229000091552734 2.19781494140625 L 9.223409652709961 2.203474044799805 C 8.647919654846191 2.783864974975586 7.849140167236328 3.116735458374023 7.031869888305664 3.116735458374023 C 6.810500144958496 3.116735458374023 6.588500022888184 3.092714309692383 6.373069763183594 3.045555114746094 L 6.367839813232422 3.044414520263672 L 6.367340087890625 3.044303894042969 C 6.289799690246582 3.027345657348633 6.211000442504883 3.018733978271484 6.133099555969238 3.018745422363281 C 5.626449584960938 3.018764495849609 5.180769920349121 3.379234313964844 5.073399543762207 3.875814437866211 L 5.063529968261719 3.921464920043945 C 4.841309547424316 4.94919490814209 4.121410369873047 5.784625053405762 3.137649536132812 6.156314849853516 L 3.098760604858398 6.171004295349121 C 2.543170928955078 6.380914688110352 2.258119583129883 7.005125045776367 2.463310241699219 7.562395095825195 L 2.489709854125977 7.634095191955566 C 2.850000381469727 8.612625122070312 2.694919586181641 9.697334289550781 2.074850082397461 10.53569507598877 L 2.030309677124023 10.59591484069824 C 1.678230285644531 11.07192516326904 1.775730133056641 11.75008487701416 2.247629165649414 12.10762500762939 L 2.297069549560547 12.14508438110352 C 3.130779266357422 12.77676486968994 3.5849609375 13.77683448791504 3.51201057434082 14.82024478912354 L 3.507410049438477 14.88595485687256 C 3.465770721435547 15.48153495788574 3.916309356689453 16.00151443481445 4.511759757995605 16.04506492614746 L 4.532119750976562 16.04655456542969 C 5.586810111999512 16.12368392944336 6.517149925231934 16.72489547729492 7.020779609680176 17.65480422973633 L 7.032620429992676 17.67667388916016 C 7.222820281982422 18.02784538269043 7.589539527893066 18.24599456787109 7.989669799804688 18.24599456787109 C 8.173210144042969 18.24599456787109 8.348819732666016 18.20055389404297 8.51161003112793 18.11093521118164 C 8.966290473937988 17.86062431335449 9.480959892272949 17.72831535339355 9.999990463256836 17.72831535339355 C 10.51902961730957 17.72831535339355 11.03369998931885 17.86062431335449 11.48836994171143 18.11092376708984 C 11.6511697769165 18.20055389404297 11.82678985595703 18.24599456787109 12.01033020019531 18.24599456787109 C 12.41045951843262 18.24599456787109 12.77717971801758 18.02784538269043 12.96718978881836 17.67702484130859 L 12.97922992706299 17.6547737121582 C 13.48285007476807 16.72490501403809 14.41317939758301 16.12370491027832 15.46783065795898 16.04656410217285 L 15.48822975158691 16.04506492614746 C 16.08367919921875 16.00151443481445 16.53422927856445 15.48154449462891 16.49258041381836 14.88591480255127 L 16.48799896240234 14.82028484344482 C 16.41501998901367 13.77684497833252 16.86919975280762 12.77677536010742 17.70293998718262 12.14507484436035 L 17.75234985351562 12.10763454437256 C 18.22426986694336 11.75008487701416 18.32176971435547 11.07192516326904 17.96965026855469 10.59584522247314 L 17.9251594543457 10.53569507598877 C 17.30508041381836 9.697344779968262 17.14999008178711 8.612634658813477 17.51028060913086 7.634115219116211 L 17.53667068481445 7.562455177307129 C 17.74188041687012 7.005114555358887 17.45682907104492 6.380914688110352 16.90124893188477 6.171004295349121 L 16.86220932006836 6.156254768371582 C 15.87858963012695 5.784634590148926 15.15868949890137 4.94919490814209 14.93645000457764 3.921384811401367 L 14.92660999298096 3.8758544921875 C 14.81921005249023 3.379184722900391 14.37356948852539 3.018714904785156 13.8669900894165 3.018733978271484 C 13.78898048400879 3.018745422363281 13.71014976501465 3.027334213256836 13.63362979888916 3.044084548950195 L 13.62843990325928 3.045225143432617 L 13.62798023223877 3.045324325561523 C 13.41154003143311 3.092704772949219 13.18953990936279 3.116724014282227 12.9681396484375 3.116724014282227 C 12.15086936950684 3.116724014282227 11.35208988189697 2.783855438232422 10.77626037597656 2.203125 L 10.77134037017822 2.198163986206055 C 10.56581974029541 1.990894317626953 10.29189014434814 1.876745223999023 10 1.876745223999023 M 10 0.8767471313476562 C 10.5366849899292 0.8767471313476562 11.0733699798584 1.08251953125 11.4814395904541 1.494064331054688 L 11.4867000579834 1.499374389648438 C 11.88267230987549 1.898717880249023 12.41787719726562 2.116729736328125 12.96814346313477 2.116729736328125 C 13.11654090881348 2.116729736328125 13.26600074768066 2.100879669189453 13.41415977478027 2.068454742431641 L 13.41888999938965 2.067415237426758 C 13.56912422180176 2.034536361694336 13.71920585632324 2.018745422363281 13.86692237854004 2.01873779296875 C 14.82785701751709 2.018693923950195 15.69258308410645 2.686660766601562 15.90402030944824 3.664505004882812 L 15.91387939453125 3.710124969482422 C 16.0634593963623 4.401894569396973 16.55356979370117 4.970654487609863 17.21564102172852 5.220794677734375 L 17.25468063354492 5.23554515838623 C 18.32608032226562 5.640344619750977 18.87080955505371 6.833194732666016 18.4750804901123 7.907975196838379 L 18.44869995117188 7.97962474822998 C 18.20594024658203 8.638935089111328 18.31134033203125 9.376164436340332 18.72913932800293 9.941034317016602 L 18.77367973327637 10.00126457214355 C 19.45323944091797 10.92005443572998 19.26712989807129 12.21455478668213 18.35626029968262 12.90469455718994 L 18.30682945251465 12.9421443939209 C 17.74529075622559 13.36760520935059 17.43640899658203 14.04772472381592 17.48555946350098 14.75052452087402 L 17.49015045166016 14.81620407104492 C 17.57033920288086 15.96298408508301 16.70771026611328 16.95854568481445 15.56118011474609 17.04240417480469 L 15.54082012176514 17.04389572143555 C 14.83139991760254 17.09578514099121 14.19729995727539 17.50554466247559 13.85853958129883 18.13101577758789 L 13.84669017791748 18.15291404724121 C 13.46882057189941 18.85059356689453 12.75103759765625 19.24599647521973 12.01032638549805 19.24599647521973 C 11.67018413543701 19.24599647521973 11.32529449462891 19.16267013549805 11.00611019134521 18.9869556427002 C 10.69289970397949 18.81452941894531 10.34644794464111 18.72831726074219 9.999995231628418 18.72831726074219 C 9.653542518615723 18.72831726074219 9.307089805603027 18.81452941894531 8.993880271911621 18.9869556427002 C 8.674759864807129 19.16263580322266 8.329746246337891 19.24599647521973 7.989670753479004 19.24599647521973 C 7.248891830444336 19.24599647521973 6.53121280670166 18.85065650939941 6.15330982208252 18.15291404724121 L 6.141449928283691 18.13101577758789 C 5.802700042724609 17.50554466247559 5.168600082397461 17.09577560424805 4.459179878234863 17.04389572143555 L 4.438810348510742 17.04240417480469 C 3.292289733886719 16.95854568481445 2.429660797119141 15.96298408508301 2.509849548339844 14.81619453430176 L 2.514440536499023 14.75052452087402 C 2.563579559326172 14.04772472381592 2.254709243774414 13.36760520935059 1.693170547485352 12.9421443939209 L 1.643739700317383 12.90469455718994 C 0.7328701019287109 12.21455478668213 0.5467605590820312 10.92005443572998 1.226320266723633 10.00126457214355 L 1.27086067199707 9.941044807434082 C 1.68865966796875 9.376164436340332 1.794059753417969 8.638935089111328 1.551300048828125 7.979615211486816 L 1.524919509887695 7.907984733581543 C 1.129190444946289 6.833194732666016 1.673919677734375 5.640344619750977 2.745319366455078 5.23554515838623 L 2.78434944152832 5.220805168151855 C 3.446430206298828 4.970654487609863 3.936540603637695 4.401894569396973 4.086119651794434 3.710124969482422 L 4.095979690551758 3.664514541625977 C 4.307402610778809 2.686731338500977 5.172210693359375 2.018787384033203 6.133063316345215 2.018743515014648 C 6.280845642089844 2.01873779296875 6.430807113647461 2.034530639648438 6.581110000610352 2.067424774169922 L 6.585840225219727 2.068454742431641 C 6.733956336975098 2.100870132446289 6.883510589599609 2.116729736328125 7.031866073608398 2.116729736328125 C 7.582176208496094 2.116729736328125 8.117297172546387 1.898757934570312 8.513299942016602 1.499374389648438 L 8.518560409545898 1.494064331054688 C 8.926630020141602 1.08251953125 9.463315010070801 0.8767471313476562 10 0.8767471313476562 Z" stroke="none"/>
  </g>
  <text id="_1" data-name="1" transform="translate(6.169 5)" fill="#fff" font-size="8" font-family="NunitoSans-SemiBold, Nunito Sans" font-weight="600"><tspan x="0" y="8">1</tspan></text>
  <text id="st" transform="translate(10.69 6)" fill="#fff" font-size="7" font-family="NunitoSans-SemiBold, Nunito Sans" font-weight="600"><tspan x="0" y="7">st</tspan></text>
</svg>
