<svg id="Component_105_1" data-name="Component 105 – 1" xmlns="http://www.w3.org/2000/svg" width="22" height="22" viewBox="0 0 22 22">
  <g id="Component_104_1" data-name="Component 104 – 1">
    <g id="Path_325" data-name="Path 325" fill="none">
      <path d="M11,0A11,11,0,1,1,0,11,11,11,0,0,1,11,0Z" stroke="none"/>
      <path d="M 11 1.600000381469727 C 5.81682014465332 1.600000381469727 1.600000381469727 5.81682014465332 1.600000381469727 11 C 1.600000381469727 16.18317985534668 5.81682014465332 20.39999961853027 11 20.39999961853027 C 16.18317985534668 20.39999961853027 20.39999961853027 16.18317985534668 20.39999961853027 11 C 20.39999961853027 5.81682014465332 16.18317985534668 1.600000381469727 11 1.600000381469727 M 11 0 C 17.07513046264648 0 22 4.924869537353516 22 11 C 22 17.07513046264648 17.07513046264648 22 11 22 C 4.924869537353516 22 0 17.07513046264648 0 11 C 0 4.924869537353516 4.924869537353516 0 11 0 Z" stroke="none" fill="currentColor"/>
    </g>
  </g>
  <path id="Path_322" data-name="Path 322" d="M0,43.373V53.465" transform="translate(11.056 -37.414)" fill="none" stroke="currentColor" stroke-linecap="round" stroke-width="1.6"/>
  <path id="Path_323" data-name="Path 323" d="M0,43.373V53.465" transform="translate(59.475 11.063) rotate(90)" fill="none" stroke="currentColor" stroke-linecap="round" stroke-width="1.6"/>
</svg>
