<svg id="Component_416_1" data-name="Component 416 – 1" xmlns="http://www.w3.org/2000/svg" xmlns:xlink="http://www.w3.org/1999/xlink" width="40" height="40" viewBox="0 0 40 40">
  <defs>
    <clipPath id="clip-path">
      <rect id="Rectangle_9950" data-name="Rectangle 9950" width="16.607" height="18.763" fill="none"/>
    </clipPath>
  </defs>
  <g id="Component_415_1" data-name="Component 415 – 1">
    <circle id="Ellipse_235" data-name="Ellipse 235" cx="20" cy="20" r="20" fill="#10a5f5"/>
  </g>
  <g id="iconfinder_add_678986" transform="translate(12.444 13.083)">
    <g id="Group_266" data-name="Group 266">
      <g id="Group_265" data-name="Group 265" clip-path="url(#clip-path)">
        <path id="Path_330" data-name="Path 330" d="M53.9,39.014a8.246,8.246,0,0,1-3.466,6.927,6.193,6.193,0,0,1-6.968,0A8.246,8.246,0,0,1,40,39.014a8.246,8.246,0,0,1,3.466-6.927,6.193,6.193,0,0,1,6.968,0A8.246,8.246,0,0,1,53.9,39.014Z" transform="translate(-51.75 -12.691)" fill="#3c9"/>
      </g>
    </g>
    <g id="Group_268" data-name="Group 268" transform="translate(0 0.12)">
      <g id="Group_269" data-name="Group 269">
        <path id="Path_332" data-name="Path 332" d="M141.017,184.469l4.6,7.655,6.614-11,2.588-4.306" transform="translate(-141.017 -176.814)" fill="none" stroke="#fff" stroke-linecap="round" stroke-linejoin="round" stroke-width="4"/>
      </g>
    </g>
  </g>
</svg>