<svg xmlns="http://www.w3.org/2000/svg" width="22" height="17" viewBox="0 0 22 17"><g fill="none" stroke="#fff" stroke-linecap="round" stroke-linejoin="round" stroke-width="1.7"><rect width="22" height="17" rx="3" stroke="none"/><rect x="0.85" y="0.85" width="20.3" height="15.3" rx="2.15" fill="none"/></g><g transform="translate(0 9)" fill="none" stroke-linecap="round" stroke-linejoin="round"><path d="M3.852,2.4a2,2,0,0,1,3.3,0l1.7,2.47A2,2,0,0,1,7.2,8H3.8A2,2,0,0,1,2.154,4.867Z" stroke="none"/><path d="M 5.5 3.130264759063721 C 5.404009819030762 3.130264759063721 5.268909931182861 3.16034460067749 5.170390129089355 3.303664684295654 L 3.472439765930176 5.773394584655762 C 3.359340190887451 5.937914848327637 3.396749973297119 6.08869457244873 3.448050022125244 6.186224460601807 C 3.499350070953369 6.283744812011719 3.602409839630127 6.400004386901855 3.802060127258301 6.400004386901855 L 7.197939872741699 6.400004386901855 C 7.397589683532715 6.400004386901855 7.500649929046631 6.283744812011719 7.551949977874756 6.186224460601807 C 7.603250026702881 6.08869457244873 7.640660285949707 5.937914848327637 7.527549743652344 5.773394584655762 L 5.829609870910645 3.303654670715332 C 5.731090068817139 3.16034460067749 5.595990180969238 3.130264759063721 5.5 3.130264759063721 M 5.5 1.530267238616943 C 6.125367641448975 1.530267238616943 6.750734806060791 1.819249629974365 7.148079872131348 2.397214412689209 L 8.846019744873047 4.866944789886475 C 9.758339881896973 6.193944454193115 8.808300018310547 8.000004768371582 7.197939872741699 8.000004768371582 L 3.802060127258301 8.000004768371582 C 2.191699981689453 8.000004768371582 1.241660118103027 6.193944454193115 2.153980255126953 4.866944789886475 L 3.851920127868652 2.397214412689209 C 4.249265193939209 1.819249629974365 4.874632358551025 1.530267238616943 5.5 1.530267238616943 Z" stroke="none" fill="#fff"/></g><g transform="translate(6.895 5)" fill="none" stroke-linecap="round"><path d="M6.2,2.714a2.3,2.3,0,0,1,3.71,0L14.164,8.94A2,2,0,0,1,12.309,12H3.8A2,2,0,0,1,1.941,8.94Z" stroke="none"/><path d="M 8.052648544311523 3.373589515686035 C 7.96630859375 3.373589515686035 7.672618865966797 3.391109466552734 7.518518447875977 3.616539001464844 L 3.262168884277344 9.842939376831055 C 3.20508861541748 9.926448822021484 3.179448127746582 10.00554943084717 3.239928245544434 10.12013912200928 C 3.311328887939453 10.2554292678833 3.494978904724121 10.39999961853027 3.796298980712891 10.39999961853027 L 12.30899810791016 10.39999961853027 C 12.61031913757324 10.39999961853027 12.79396820068359 10.2554292678833 12.86536884307861 10.12013912200928 C 12.92584800720215 10.00554943084717 12.90020847320557 9.926448822021484 12.8431282043457 9.842939376831055 L 8.58677864074707 3.616539001464844 C 8.43267822265625 3.391109466552734 8.138988494873047 3.373589515686035 8.052648544311523 3.373589515686035 M 8.052648544311523 1.773593902587891 C 8.765955924987793 1.773593902587891 9.479263305664062 2.086929321289062 9.907648086547852 2.71359920501709 L 14.1639986038208 8.939998626708984 C 15.07460880279541 10.27209949493408 14.02713871002197 11.99999904632568 12.30899810791016 11.99999904632568 L 3.796298980712891 11.99999904632568 C 2.078158378601074 11.99999904632568 1.030688285827637 10.27209949493408 1.941298484802246 8.939998626708984 L 6.197649002075195 2.71359920501709 C 6.626033782958984 2.086929321289062 7.339341163635254 1.773593902587891 8.052648544311523 1.773593902587891 Z" stroke="none" fill="#fff"/></g><g transform="translate(4 3.261)" fill="none" stroke="#fff" stroke-width="1.6"><circle cx="2.25" cy="2.25" r="2.25" stroke="none"/><circle cx="2.25" cy="2.25" r="1.45" fill="none"/></g></svg>