<svg xmlns="http://www.w3.org/2000/svg" width="22.383" height="17.8" viewBox="0 0 22.383 17.8">
  <g id="envelope-131965017430203317_0" transform="translate(4.15 131.15)">
    <path id="Path_222" data-name="Path 222" d="M32.13,26.3l6.727,6.566L37.9,33.8,31.175,27.23Z" transform="translate(-20.973 -149.579)" fill="#afafaf" stroke="#afafaf" stroke-width="0.3" opacity="0.9"/>
    <path id="Path_223" data-name="Path 223" d="M14.947,24.287l.938.923L9.316,31.669l-.938-.92Z" transform="translate(-12 -147.568)" fill="#afafaf" stroke="#afafaf" stroke-width="0.3" opacity="0.9"/>
    <path id="Path_224" data-name="Path 224" d="M19.06,24.678a3.653,3.653,0,0,1-2.706-1.2L8.3,15.231l.9-.931,8.054,8.315a2.511,2.511,0,0,0,3.672,0L28.982,14.3l.9.931-8.118,8.315A3.846,3.846,0,0,1,19.06,24.678Z" transform="translate(-12 -145)" fill="#afafaf" stroke="#afafaf" stroke-width="0.3"/>
    <path id="Path_225" data-name="Path 225" d="M28.135,29.5H9.949A1.949,1.949,0,0,1,8,27.481V14.019A1.949,1.949,0,0,1,9.949,12H28.135a1.949,1.949,0,0,1,1.949,2.019V27.481A1.949,1.949,0,0,1,28.135,29.5ZM9.949,13.346a.625.625,0,0,0-.65.673V27.481a.625.625,0,0,0,.65.673H28.135a.625.625,0,0,0,.65-.673V14.019a.625.625,0,0,0-.65-.673Z" transform="translate(-12 -143)" fill="#afafaf" stroke="#afafaf" stroke-width="0.3"/>
  </g>
</svg>
