<?xml version="1.0" encoding="UTF-8"?>
<svg width="58px" height="76px" viewBox="0 0 58 76" version="1.1" xmlns="http://www.w3.org/2000/svg" xmlns:xlink="http://www.w3.org/1999/xlink">
    <title>component_675___1</title>
    <g id="Page-1" stroke="none" stroke-width="1" fill="none" fill-rule="evenodd">
        <g id="component_675___1" fill="#FF5454" fill-rule="nonzero">
            <g id="Group" transform="translate(0.000000, 22.405000)">
                <path d="M52.888,4.702 C50.0902334,1.70187228 46.1722268,-0.00168299467 42.07,-0.00168299467 C37.9677732,-0.00168299467 34.0497666,1.70187228 31.252,4.702 C30.2235456,5.81875426 29.3595228,7.0764025 28.686,8.437 C28.0122298,7.07533557 27.1463909,5.81749495 26.115,4.702 C23.3160165,1.70405214 19.3984631,0.00204336624 15.297,0.00204336624 C11.1955369,0.00204336624 7.27798349,1.70405214 4.479,4.702 C-1.49281298,11.0880771 -1.49281298,21.0099229 4.479,27.396 L28.686,52.166 L52.888,27.402 C58.8763939,21.0201636 58.8763939,11.0838364 52.888,4.702 Z" id="Path"></path>
            </g>
            <path d="M49.358,26.973 L47.986,26.973 L47.986,18.88 C48.0433012,13.8448712 45.9904075,9.01562116 42.325,5.563 C34.8132994,-1.85196219 22.7367006,-1.85196219 15.225,5.563 C11.5581175,9.01492244 9.50373407,13.8442647 9.56,18.88 L9.56,26.972 L49.358,26.973 Z M39.753,26.973 L17.795,26.973 L17.795,18.88 C17.753341,15.9993219 18.9200561,13.2328616 21.012,11.252 C25.3291391,7.03800893 32.2198609,7.03800893 36.537,11.252 C38.6279572,13.2334641 39.7941801,15.999617 39.753,18.88 L39.753,26.973 Z" id="Shape"></path>
        </g>
    </g>
</svg>