<svg xmlns="http://www.w3.org/2000/svg" width="21.69" height="21.665" viewBox="0 0 21.69 21.665">
  <g id="home" transform="translate(0.796 0.862)">
    <path id="Path_64" data-name="Path 64" d="M13.8,20.075h2.512a1.187,1.187,0,0,0,1.256-1.256V10.028h1.256a1.426,1.426,0,0,0,1-.377A1.221,1.221,0,0,0,19.7,7.893L10.915.358a1.32,1.32,0,0,0-1.633,0L.491,7.893A1.221,1.221,0,0,0,.365,9.651a.978.978,0,0,0,.879.377H2.5v8.791a1.187,1.187,0,0,0,1.256,1.256H6.268a1.187,1.187,0,0,0,1.256-1.256V15.051h5.024v3.768A1.187,1.187,0,0,0,13.8,20.075Z" transform="translate(-0.045 -0.075)" fill="none" stroke="currentColor" stroke-width="1.6"/>
  </g>
</svg>
