<svg xmlns="http://www.w3.org/2000/svg" width="77.734" height="88.912" viewBox="0 0 77.734 88.912">
  <g id="trophy_86569" transform="translate(-15.299 1)">
    <path id="Path_525" data-name="Path 525" d="M77.455,34.765A30.644,30.644,0,0,0,92.033,12.131a9.267,9.267,0,0,0-9.244-9.415A8.14,8.14,0,0,0,78.7,3.8V0H29.632V3.8a8.143,8.143,0,0,0-4.089-1.086,9.311,9.311,0,0,0-9.244,9.6A30.718,30.718,0,0,0,30.877,34.765,23.551,23.551,0,0,0,45.1,49.431v9.415H32.833L27.5,86.912H81.011L75.5,59.028H63.233V49.612A24.287,24.287,0,0,0,77.455,34.765ZM78.7,8.148a5.739,5.739,0,0,1,4.089-1.811,5.629,5.629,0,0,1,5.689,5.613,27.544,27.544,0,0,1-9.956,17.563c0-.905.178-1.63.178-2.535V8.148ZM19.854,12.132a5.669,5.669,0,0,1,5.689-5.794,5.106,5.106,0,0,1,4.089,1.811h0V27.16A12.164,12.164,0,0,0,29.81,29.7,27.748,27.748,0,0,1,19.854,12.132ZM33.188,26.979V3.621H75.144V26.979a20.065,20.065,0,0,1-19.912,20.28H53.1A20.065,20.065,0,0,1,33.188,26.979Zm30.045,35.67h9.244l4.089,20.642h-44.8l4.089-20.642H63.233ZM56.121,50.88a21.424,21.424,0,0,0,3.378-.362v8.329H48.655V50.7a23.847,23.847,0,0,0,3.378.362h4.089V50.88Z" fill="#939393" stroke="#939394" stroke-width="2"/>
  </g>
</svg>
