<svg id="Component_451_1" data-name="Component 451 – 1" xmlns="http://www.w3.org/2000/svg" width="46" height="46" viewBox="0 0 46 46">
  <g id="Ellipse_299" data-name="Ellipse 299" fill="#3c3c3c">
    <path d="M 23 43.5 C 20.23142051696777 43.5 17.54697036743164 42.95832824707031 15.021240234375 41.89002990722656 C 12.58041000366211 40.85765075683594 10.3878002166748 39.37918090820312 8.50430965423584 37.49568939208984 C 6.620820045471191 35.61220169067383 5.142350196838379 33.41958999633789 4.109970092773438 30.978759765625 C 3.041670083999634 28.45302963256836 2.5 25.76857948303223 2.5 23 C 2.5 20.23142051696777 3.041670083999634 17.54697036743164 4.109970092773438 15.021240234375 C 5.142350196838379 12.58041000366211 6.620820045471191 10.3878002166748 8.50430965423584 8.50430965423584 C 10.3878002166748 6.620820045471191 12.58041000366211 5.142350196838379 15.021240234375 4.109970092773438 C 17.54697036743164 3.041670083999634 20.23142051696777 2.5 23 2.5 C 25.76857948303223 2.5 28.45302963256836 3.041670083999634 30.978759765625 4.109970092773438 C 33.41958999633789 5.142350196838379 35.61220169067383 6.620820045471191 37.49568939208984 8.50430965423584 C 39.37918090820312 10.3878002166748 40.85765075683594 12.58041000366211 41.89002990722656 15.021240234375 C 42.95832824707031 17.54697036743164 43.5 20.23142051696777 43.5 23 C 43.5 25.76857948303223 42.95832824707031 28.45302963256836 41.89002990722656 30.978759765625 C 40.85765075683594 33.41958999633789 39.37918090820312 35.61220169067383 37.49568939208984 37.49568939208984 C 35.61220169067383 39.37918090820312 33.41958999633789 40.85765075683594 30.978759765625 41.89002990722656 C 28.45302963256836 42.95832824707031 25.76857948303223 43.5 23 43.5 Z" stroke="none"/>
    <path d="M 23 5 C 18.1920337677002 5 13.67183303833008 6.872322082519531 10.27207946777344 10.27207946777344 C 6.872322082519531 13.67183303833008 5 18.1920337677002 5 23 C 5 27.8079662322998 6.872322082519531 32.32816696166992 10.27207946777344 35.72792053222656 C 13.67183303833008 39.12767791748047 18.1920337677002 41 23 41 C 27.8079662322998 41 32.32816696166992 39.12767791748047 35.72792053222656 35.72792053222656 C 39.12767791748047 32.32816696166992 41 27.8079662322998 41 23 C 41 18.1920337677002 39.12767791748047 13.67183303833008 35.72792053222656 10.27207946777344 C 32.32816696166992 6.872322082519531 27.8079662322998 5 23 5 M 23 0 C 35.70254516601562 0 46 10.29745483398438 46 23 C 46 35.70254516601562 35.70254516601562 46 23 46 C 10.29745483398438 46 0 35.70254516601562 0 23 C 0 10.29745483398438 10.29745483398438 0 23 0 Z" stroke="none" fill="#fff"/>
  </g>
</svg>
