<svg xmlns="http://www.w3.org/2000/svg" width="44.013" height="55.801" viewBox="0 0 44.013 55.801"><defs><style>.a{fill:#fff;}</style></defs><path class="a" d="M79.491,26.474a3.474,3.474,0,0,0-2.6-1.109H75.67v-7.61A17.408,17.408,0,0,0,70.627,5.232a16.547,16.547,0,0,0-24.146,0,17.408,17.408,0,0,0-5.043,12.523v7.61H40.216a3.474,3.474,0,0,0-2.6,1.109,3.738,3.738,0,0,0-1.07,2.7V52a3.741,3.741,0,0,0,1.07,2.7,3.476,3.476,0,0,0,2.6,1.109H76.893a3.475,3.475,0,0,0,2.6-1.109,3.744,3.744,0,0,0,1.07-2.7V29.169A3.737,3.737,0,0,0,79.491,26.474ZM68.335,25.364H48.774v-7.61a9.961,9.961,0,0,1,2.866-7.173,9.531,9.531,0,0,1,13.831,0,9.962,9.962,0,0,1,2.865,7.173Z" transform="translate(-36.548 0)"/></svg>
