<svg xmlns="http://www.w3.org/2000/svg" xmlns:xlink="http://www.w3.org/1999/xlink" width="464.297" height="463.437" viewBox="0 0 464.297 463.437">
  <defs>
    <filter id="Path_269" x="0" y="0" width="464.297" height="463.437" filterUnits="userSpaceOnUse">
      <feOffset dy="3" input="SourceAlpha"/>
      <feGaussianBlur stdDeviation="3" result="blur"/>
      <feFlood flood-opacity="0.161"/>
      <feComposite operator="in" in2="blur"/>
      <feComposite in="SourceGraphic"/>
    </filter>
  </defs>
  <g id="Memento_Logo" data-name="Memento Logo" transform="matrix(0.951, 0.309, -0.309, 0.951, 117.929, 5.91)">
    <g id="Memento_Logo-2" data-name="Memento Logo" transform="translate(1736.058 -193.93)" style="isolation: isolate">
      <g id="Memento_Logo-3" data-name="Memento Logo" transform="translate(-1669.834 194.095)" style="isolation: isolate">
        <g id="Layer_1" data-name="Layer 1">
          <path id="Path_282" data-name="Path 282" d="M260.317,999.51Z" transform="translate(0 -659.535)" fill="#c6cddf"/>
          <g id="Component_28_1" data-name="Component 28 – 1" transform="translate(-66.18 -0.144)">
            <path id="Path_268" data-name="Path 268" d="M667,439.78c-3.86-1.64-7.69-3.35-11.58-4.92l-6-2.13c-2-.7-3.94-1.48-6-2-4.09-1.11-8.12-2.4-12.32-3.15-2.09-.42-4.16-.88-6.25-1.26l-6.35-.83c-1.06-.13-2.11-.29-3.17-.38l-3.21-.19c-2.14-.1-4.27-.28-6.41-.31a117.169,117.169,0,0,0-12.84.61l-1.38.14c.58-1.56,1.12-3.14,1.67-4.71s.9-3.2,1.35-4.8l.66-2.41c.19-.81.33-1.62.5-2.43l.94-4.89c.24-1.63.4-3.27.61-4.91.48-3.28.52-6.57.71-9.85.12-1.65,0-3.28,0-4.92l-.11-4.91c-.2-3.26-.51-6.5-.78-9.75l-.59-7.27-7.09,1.68c-3.17.74-6.35,1.44-9.51,2.25l-4.71,1.4c-1.57.48-3.15.89-4.68,1.52-3.07,1.18-6.18,2.23-9.15,3.7-1.5.69-3,1.35-4.5,2.08l-4.35,2.4c-.72.41-1.46.79-2.17,1.22l-2.09,1.36c-1.38.92-2.8,1.79-4.15,2.76-1.1.82-2.19,1.65-3.26,2.5a1.723,1.723,0,0,0-.07-.31,115.95,115.95,0,0,0-3.31-12.42c-.67-2-1.49-4-2.23-6l-1.15-3c-.41-1-.88-1.93-1.32-2.91l-2.71-5.8c-1-1.88-2.07-3.72-3.1-5.58-2-3.77-4.43-7.22-6.72-10.79-1.12-1.8-2.46-3.43-3.72-5.12l-3.84-5c-2.68-3.24-5.46-6.38-8.2-9.55l-6.08-7.05v-.07h0v.05l-6.08,7.05c-2.74,3.18-5.52,6.32-8.2,9.55l-3.83,5c-1.27,1.68-2.6,3.31-3.72,5.12-2.3,3.56-4.74,7-6.73,10.79-1,1.86-2.1,3.69-3.09,5.57l-2.72,5.8c-.44,1-.92,1.92-1.33,2.91l-1.14,3c-.75,2-1.57,4-2.24,6a116.1,116.1,0,0,0-3.31,12.43l-.06.3c-1.08-.84-2.17-1.67-3.26-2.5-1.36-1-2.77-1.83-4.16-2.75l-2.09-1.36c-.71-.44-1.44-.82-2.16-1.23l-4.36-2.4c-1.48-.72-3-1.39-4.49-2.08-3-1.46-6.09-2.51-9.16-3.7-1.53-.63-3.11-1-4.67-1.52l-4.71-1.4c-3.16-.81-6.34-1.5-9.52-2.25l-7.08-1.67-.6,7.26c-.27,3.25-.58,6.5-.78,9.75l-.11,4.91c0,1.64-.12,3.27,0,4.92.19,3.29.24,6.57.72,9.85.2,1.64.37,3.28.6,4.92l1,4.88c.17.81.3,1.63.5,2.43l.65,2.41c.45,1.6.84,3.22,1.35,4.8s1.09,3.15,1.67,4.71l-1.38-.13a114.75,114.75,0,0,0-12.84-.61c-2.14,0-4.27.21-6.41.31l-3.2.18c-1.07.09-2.12.26-3.18.38l-6.34.83c-2.1.38-4.17.85-6.25,1.27-4.21.75-8.23,2-12.32,3.14-2.07.51-4,1.3-6,2l-6,2.13c-3.9,1.58-7.72,3.28-11.59,4.93l-8.62,3.66,4.92,8c2.2,3.57,4.35,7.17,6.62,10.7l3.63,5.18c1.23,1.71,2.37,3.48,3.76,5.09,2.7,3.27,5.25,6.64,8.25,9.68,1.46,1.55,2.88,3.12,4.37,4.64l4.7,4.34c.8.72,1.56,1.46,2.38,2.15l2.51,2c1.69,1.31,3.32,2.69,5.06,3.94a121,121,0,0,0,10.3,6.62l-2.67,1.84c-1.34,1-2.61,2.06-3.91,3.09l-2,1.56c-.63.54-1.22,1.12-1.83,1.67l-3.64,3.39c-1.16,1.19-2.26,2.41-3.39,3.62-2.31,2.37-4.28,5-6.37,7.55a48.572,48.572,0,0,0-2.9,4l-2.8,4c-1.75,2.75-3.4,5.56-5.11,8.34l-3.8,6.21,6.72,2.84c3,1.26,6,2.57,9,3.78l4.63,1.63c1.55.54,3.07,1.14,4.68,1.53,3.18.85,6.31,1.83,9.58,2.4,1.62.32,3.23.67,4.86,1l4.93.62c.83.1,1.64.22,2.47.29l2.49.13c1.66.07,3.32.2,5,.21l3.45-.07a121.114,121.114,0,0,0-4.56,11.56c-.67,2-1.19,4.1-1.78,6.16l-.87,3.09c-.26,1-.44,2.09-.67,3.13l-1.27,6.27c-.32,2.11-.55,4.22-.83,6.33-.65,4.21-.74,8.44-1,12.67-.19,2.12-.08,4.22-.07,6.33l.09,6.32c.23,4.19.6,8.37.9,12.55l.67,9.35,9.16-2.06c4.1-.93,8.2-1.79,12.28-2.8l6.07-1.75c2-.61,4.06-1.12,6-1.9,4-1.5,8-2.82,11.82-4.67,1.94-.88,3.89-1.71,5.81-2.63l5.64-3c.93-.52,1.88-1,2.79-1.55l2.71-1.73c1.79-1.17,3.62-2.27,5.37-3.51a112.5,112.5,0,0,0,10.06-8l1-.85c.48,1.71,1,3.4,1.53,5.1s1.17,3.11,1.75,4.67l.91,2.32c.32.77.69,1.51,1,2.26l2.13,4.49c.78,1.46,1.62,2.88,2.43,4.32,1.56,2.93,3.47,5.6,5.26,8.36.87,1.4,1.92,2.66,2.9,4l3,3.89c2.09,2.5,4.27,4.93,6.4,7.39l4.67,5.39v.06h0v-.06l4.67-5.38c2.14-2.47,4.31-4.89,6.4-7.4l3-3.89c1-1.3,2-2.56,2.9-4,1.8-2.76,3.71-5.43,5.27-8.36.8-1.44,1.64-2.86,2.42-4.32l2.13-4.5c.34-.75.72-1.49,1-2.25l.9-2.33c.58-1.55,1.23-3.08,1.76-4.66s1-3.4,1.52-5.11l1,.86a117.34,117.34,0,0,0,10.06,8c1.75,1.23,3.58,2.33,5.37,3.5l2.71,1.73c.92.55,1.87,1,2.8,1.55l5.63,3c1.92.92,3.87,1.76,5.81,2.64,3.84,1.85,7.86,3.17,11.83,4.67,2,.78,4,1.29,6,1.89l6.08,1.76c4.07,1,8.18,1.87,12.27,2.79l9.16,2.06.67-9.34c.3-4.19.68-8.36.9-12.56l.09-6.32c0-2.11.12-4.21-.07-6.33-.27-4.23-.36-8.45-1-12.67-.27-2.11-.5-4.22-.83-6.32l-1.27-6.27c-.22-1.05-.41-2.1-.67-3.13l-.8-3.1c-.6-2.06-1.12-4.13-1.79-6.17a118.022,118.022,0,0,0-4.56-11.56l3.45.08c1.66,0,3.32-.15,5-.22l2.49-.13c.83-.07,1.65-.19,2.47-.28l4.93-.63c1.63-.28,3.24-.64,4.86-1,3.27-.56,6.4-1.55,9.59-2.39,1.6-.4,3.12-1,4.67-1.53l4.63-1.64c3-1.2,6-2.51,9-3.78l6.72-2.83-3.8-6.21c-1.7-2.78-3.35-5.59-5.11-8.34l-2.8-4c-.94-1.33-1.82-2.71-2.9-4-2.09-2.54-4-5.17-6.37-7.54-1.13-1.21-2.23-2.44-3.38-3.62L629.48,514c-.61-.56-1.21-1.14-1.84-1.68l-1.94-1.56c-1.31-1-2.57-2.1-3.91-3.08l-2.68-1.85a121.028,121.028,0,0,0,10.31-6.61c1.73-1.26,3.37-2.63,5.05-3.95l2.52-2c.81-.69,1.58-1.43,2.37-2.14l4.7-4.35c1.5-1.51,2.92-3.09,4.38-4.64,3-3,5.55-6.4,8.25-9.67,1.38-1.61,2.53-3.38,3.75-5.1l3.63-5.17c2.27-3.53,4.42-7.13,6.62-10.71l4.92-8Z" transform="translate(-320.91 -313.78)" fill="#fff"/>
            <g transform="matrix(0.95, -0.31, 0.31, 0.95, -114.02, 30.8)" filter="url(#Path_269)">
              <path id="Path_269-2" data-name="Path 269" d="M667,439.78c-3.86-1.64-7.69-3.35-11.58-4.92l-6-2.13c-2-.7-3.94-1.48-6-2-4.09-1.11-8.12-2.4-12.32-3.15-2.09-.42-4.16-.88-6.25-1.26l-6.35-.83c-1.06-.13-2.11-.29-3.17-.38l-3.21-.19c-2.14-.1-4.27-.28-6.41-.31a117.169,117.169,0,0,0-12.84.61l-1.38.14c.58-1.56,1.12-3.14,1.67-4.71s.9-3.2,1.35-4.8l.66-2.41c.19-.81.33-1.62.5-2.43l.94-4.89c.24-1.63.4-3.27.61-4.91.48-3.28.52-6.57.71-9.85.12-1.65,0-3.28,0-4.92l-.11-4.91c-.2-3.26-.51-6.5-.78-9.75l-.59-7.27-7.09,1.68c-3.17.74-6.35,1.44-9.51,2.25l-4.71,1.4c-1.57.48-3.15.89-4.68,1.52-3.07,1.18-6.18,2.23-9.15,3.7-1.5.69-3,1.35-4.5,2.08l-4.35,2.4c-.72.41-1.46.79-2.17,1.22l-2.09,1.36c-1.38.92-2.8,1.79-4.15,2.76-1.1.82-2.19,1.65-3.26,2.5a1.723,1.723,0,0,0-.07-.31,115.95,115.95,0,0,0-3.31-12.42c-.67-2-1.49-4-2.23-6l-1.15-3c-.41-1-.88-1.93-1.32-2.91l-2.71-5.8c-1-1.88-2.07-3.72-3.1-5.58-2-3.77-4.43-7.22-6.72-10.79-1.12-1.8-2.46-3.43-3.72-5.12l-3.84-5c-2.68-3.24-5.46-6.38-8.2-9.55l-6.08-7.05v-.07h0v.05l-6.08,7.05c-2.74,3.18-5.52,6.32-8.2,9.55l-3.83,5c-1.27,1.68-2.6,3.31-3.72,5.12-2.3,3.56-4.74,7-6.73,10.79-1,1.86-2.1,3.69-3.09,5.57l-2.72,5.8c-.44,1-.92,1.92-1.33,2.91l-1.14,3c-.75,2-1.57,4-2.24,6a116.1,116.1,0,0,0-3.31,12.43l-.06.3c-1.08-.84-2.17-1.67-3.26-2.5-1.36-1-2.77-1.83-4.16-2.75l-2.09-1.36c-.71-.44-1.44-.82-2.16-1.23l-4.36-2.4c-1.48-.72-3-1.39-4.49-2.08-3-1.46-6.09-2.51-9.16-3.7-1.53-.63-3.11-1-4.67-1.52l-4.71-1.4c-3.16-.81-6.34-1.5-9.52-2.25l-7.08-1.67-.6,7.26c-.27,3.25-.58,6.5-.78,9.75l-.11,4.91c0,1.64-.12,3.27,0,4.92.19,3.29.24,6.57.72,9.85.2,1.64.37,3.28.6,4.92l1,4.88c.17.81.3,1.63.5,2.43l.65,2.41c.45,1.6.84,3.22,1.35,4.8s1.09,3.15,1.67,4.71l-1.38-.13a114.75,114.75,0,0,0-12.84-.61c-2.14,0-4.27.21-6.41.31l-3.2.18c-1.07.09-2.12.26-3.18.38l-6.34.83c-2.1.38-4.17.85-6.25,1.27-4.21.75-8.23,2-12.32,3.14-2.07.51-4,1.3-6,2l-6,2.13c-3.9,1.58-7.72,3.28-11.59,4.93l-8.62,3.66,4.92,8c2.2,3.57,4.35,7.17,6.62,10.7l3.63,5.18c1.23,1.71,2.37,3.48,3.76,5.09,2.7,3.27,5.25,6.64,8.25,9.68,1.46,1.55,2.88,3.12,4.37,4.64l4.7,4.34c.8.72,1.56,1.46,2.38,2.15l2.51,2c1.69,1.31,3.32,2.69,5.06,3.94a121,121,0,0,0,10.3,6.62l-2.67,1.84c-1.34,1-2.61,2.06-3.91,3.09l-2,1.56c-.63.54-1.22,1.12-1.83,1.67l-3.64,3.39c-1.16,1.19-2.26,2.41-3.39,3.62-2.31,2.37-4.28,5-6.37,7.55a48.572,48.572,0,0,0-2.9,4l-2.8,4c-1.75,2.75-3.4,5.56-5.11,8.34l-3.8,6.21,6.72,2.84c3,1.26,6,2.57,9,3.78l4.63,1.63c1.55.54,3.07,1.14,4.68,1.53,3.18.85,6.31,1.83,9.58,2.4,1.62.32,3.23.67,4.86,1l4.93.62c.83.1,1.64.22,2.47.29l2.49.13c1.66.07,3.32.2,5,.21l3.45-.07a121.114,121.114,0,0,0-4.56,11.56c-.67,2-1.19,4.1-1.78,6.16l-.87,3.09c-.26,1-.44,2.09-.67,3.13l-1.27,6.27c-.32,2.11-.55,4.22-.83,6.33-.65,4.21-.74,8.44-1,12.67-.19,2.12-.08,4.22-.07,6.33l.09,6.32c.23,4.19.6,8.37.9,12.55l.67,9.35,9.16-2.06c4.1-.93,8.2-1.79,12.28-2.8l6.07-1.75c2-.61,4.06-1.12,6-1.9,4-1.5,8-2.82,11.82-4.67,1.94-.88,3.89-1.71,5.81-2.63l5.64-3c.93-.52,1.88-1,2.79-1.55l2.71-1.73c1.79-1.17,3.62-2.27,5.37-3.51a112.5,112.5,0,0,0,10.06-8l1-.85c.48,1.71,1,3.4,1.53,5.1s1.17,3.11,1.75,4.67l.91,2.32c.32.77.69,1.51,1,2.26l2.13,4.49c.78,1.46,1.62,2.88,2.43,4.32,1.56,2.93,3.47,5.6,5.26,8.36.87,1.4,1.92,2.66,2.9,4l3,3.89c2.09,2.5,4.27,4.93,6.4,7.39l4.67,5.39v.06h0v-.06l4.67-5.38c2.14-2.47,4.31-4.89,6.4-7.4l3-3.89c1-1.3,2-2.56,2.9-4,1.8-2.76,3.71-5.43,5.27-8.36.8-1.44,1.64-2.86,2.42-4.32l2.13-4.5c.34-.75.72-1.49,1-2.25l.9-2.33c.58-1.55,1.23-3.08,1.76-4.66s1-3.4,1.52-5.11l1,.86a117.34,117.34,0,0,0,10.06,8c1.75,1.23,3.58,2.33,5.37,3.5l2.71,1.73c.92.55,1.87,1,2.8,1.55l5.63,3c1.92.92,3.87,1.76,5.81,2.64,3.84,1.85,7.86,3.17,11.83,4.67,2,.78,4,1.29,6,1.89l6.08,1.76c4.07,1,8.18,1.87,12.27,2.79l9.16,2.06.67-9.34c.3-4.19.68-8.36.9-12.56l.09-6.32c0-2.11.12-4.21-.07-6.33-.27-4.23-.36-8.45-1-12.67-.27-2.11-.5-4.22-.83-6.32l-1.27-6.27c-.22-1.05-.41-2.1-.67-3.13l-.8-3.1c-.6-2.06-1.12-4.13-1.79-6.17a118.022,118.022,0,0,0-4.56-11.56l3.45.08c1.66,0,3.32-.15,5-.22l2.49-.13c.83-.07,1.65-.19,2.47-.28l4.93-.63c1.63-.28,3.24-.64,4.86-1,3.27-.56,6.4-1.55,9.59-2.39,1.6-.4,3.12-1,4.67-1.53l4.63-1.64c3-1.2,6-2.51,9-3.78l6.72-2.83-3.8-6.21c-1.7-2.78-3.35-5.59-5.11-8.34l-2.8-4c-.94-1.33-1.82-2.71-2.9-4-2.09-2.54-4-5.17-6.37-7.54-1.13-1.21-2.23-2.44-3.38-3.62L629.48,514c-.61-.56-1.21-1.14-1.84-1.68l-1.94-1.56c-1.31-1-2.57-2.1-3.91-3.08l-2.68-1.85a121.028,121.028,0,0,0,10.31-6.61c1.73-1.26,3.37-2.63,5.05-3.95l2.52-2c.81-.69,1.58-1.43,2.37-2.14l4.7-4.35c1.5-1.51,2.92-3.09,4.38-4.64,3-3,5.55-6.4,8.25-9.67,1.38-1.61,2.53-3.38,3.75-5.1l3.63-5.17c2.27-3.53,4.42-7.13,6.62-10.71l4.92-8Z" transform="translate(-90.28 -391.65) rotate(18)" fill="#52b5ee"/>
            </g>
            <path id="Path_270" data-name="Path 270" d="M667,439.78c-3.86-1.64-7.69-3.35-11.58-4.92l-6-2.13c-2-.7-3.94-1.48-6-2-4.09-1.11-8.12-2.4-12.32-3.15-2.09-.42-4.16-.88-6.25-1.26l-6.35-.83c-1.06-.13-2.11-.29-3.17-.38l-3.21-.19c-2.14-.1-4.27-.28-6.41-.31a117.169,117.169,0,0,0-12.84.61c-2.13.2-4.27.39-6.38.8s-4.23.67-6.32,1.15L574,428.76c-2.06.55-4.07,1.29-6.11,1.94a114.652,114.652,0,0,0-40.22,24.58c0,3.69-.27,7.37-.53,11.05,1.19-1,2.38-1.91,3.61-2.82a116.629,116.629,0,0,1,41-20.33A100.186,100.186,0,0,1,594,439.84c3.75-.28,7.51,0,11.26.05,1.88.09,3.75.34,5.62.5l2.81.27c.93.12,1.86.31,2.79.46a155.792,155.792,0,0,1,35,10c-.4.64-.78,1.29-1.18,1.92-2.22,3.11-4.25,6.38-6.61,9.37s-4.57,6.11-7.18,8.85c-1.26,1.41-2.5,2.86-3.79,4.24l-4,4c-.68.66-1.33,1.36-2,2l-2.14,1.84c-1.43,1.21-2.82,2.5-4.3,3.66-3,2.21-5.95,4.59-9.17,6.53A100.253,100.253,0,0,1,591,503.65a116.679,116.679,0,0,1-45.2,7c-1.89,0-3.79-.14-5.68-.27,1.85,1,3.66,2.14,5.45,3.32a9.74,9.74,0,0,1,4.09,5.71,124.282,124.282,0,0,0,20.35.79A110.257,110.257,0,0,0,595,516.07c2-.65,4.1-1.21,6.11-1.94l6-2.3c2-.82,3.88-1.82,5.82-2.72a62.988,62.988,0,0,0,5.68-3,113.547,113.547,0,0,0,10.84-6.91c1.73-1.26,3.37-2.63,5.05-3.95l2.52-2c.81-.69,1.58-1.43,2.37-2.14l4.7-4.35c1.5-1.51,2.92-3.09,4.38-4.64,3-3,5.55-6.4,8.25-9.67,1.38-1.61,2.53-3.38,3.75-5.1l3.63-5.17c2.27-3.53,4.42-7.13,6.62-10.71l4.92-8Z" transform="translate(-320.91 -313.78)" fill="#fff"/>
            <path id="Path_271" data-name="Path 271" d="M500.16,498.37a111.7,111.7,0,0,1,24,4.26,136.9,136.9,0,0,1,23,8.91,115.693,115.693,0,0,1,39,31.53c1.26,1.71,2.62,3.38,3.81,5.15l3.51,5.38c1.14,1.82,2.09,3.74,3.14,5.61a62.787,62.787,0,0,1,2.82,5.77,114.642,114.642,0,0,1,4.74,11.95c.67,2,1.19,4.11,1.79,6.17l.86,3.09c.26,1,.45,2.08.67,3.13l1.27,6.27c.33,2.1.56,4.21.83,6.32.66,4.22.75,8.44,1,12.67.19,2.12.08,4.22.07,6.33l-.09,6.32c-.22,4.2-.6,8.37-.9,12.56l-.67,9.34-9.16-2.06c-4.09-.92-8.19-1.79-12.27-2.79l-6.08-1.76c-2-.6-4.06-1.11-6-1.89-4-1.5-8-2.82-11.83-4.67-1.94-.88-3.89-1.72-5.81-2.64l-5.63-3c-.93-.52-1.88-1-2.8-1.55L546.76,627c-1.79-1.17-3.62-2.27-5.37-3.5a115.421,115.421,0,0,1-10.06-8c-1.61-1.42-3.23-2.81-4.7-4.39s-3-3-4.45-4.63l-4.13-4.93c-1.35-1.66-2.54-3.44-3.81-5.15a110.081,110.081,0,0,1-12-22.37,124.491,124.491,0,0,1-6.77-24.12,137.276,137.276,0,0,1-1.81-24.64A111.588,111.588,0,0,1,496.55,501c-.07,4,.07,8.06.39,12.05s.69,8,1.29,11.89a148.149,148.149,0,0,0,5.16,23,116.661,116.661,0,0,0,21.3,40.48,100.635,100.635,0,0,0,16.09,15.74c2.88,2.41,6.08,4.41,9.15,6.56,1.58,1,3.25,1.91,4.86,2.88l2.43,1.42c.83.45,1.69.85,2.54,1.27l5.06,2.52c1.73.77,3.5,1.47,5.24,2.21,3.44,1.58,7.12,2.66,10.7,3.92s7.34,2.13,11,3.22c3.74.88,7.52,1.63,11.27,2.47L593.2,638a161.14,161.14,0,0,0-1.1-45.57c-.16-.93-.28-1.87-.47-2.8l-.66-2.74c-.45-1.82-.82-3.68-1.34-5.48-1.16-3.57-2.13-7.22-3.61-10.67a100.868,100.868,0,0,0-10.37-20,116.849,116.849,0,0,0-32.53-32.17,149.78,149.78,0,0,0-20.54-11.64q-5.39-2.56-11-4.69C507.85,500.78,504.05,499.48,500.16,498.37Z" transform="translate(-320.91 -313.78)" fill="#fff"/>
            <path id="Path_272" data-name="Path 272" d="M543.71,399.82c2.22-1.89,4.7-3.46,7.07-5.15,1.22-.8,2.51-1.5,3.75-2.26l1.88-1.13c.64-.35,1.31-.66,2-1a120.83,120.83,0,0,1,26.48-9.82l.15,1.74c0,3,.27,6,.17,8.91a81.879,81.879,0,0,1-.42,8.84c-.15,1.46-.25,2.94-.43,4.4l-.69,4.34c-.12.72-.2,1.45-.35,2.17L582.8,413c-.34,1.42-.61,2.86-1,4.26-.88,2.78-1.62,5.62-2.74,8.31a80.836,80.836,0,0,1-6.44,13.19c4.38-.22,8.74-.67,13.1-1.14.58-1,1.13-2.1,1.71-3.15a47.777,47.777,0,0,0,2.16-4.51,86.869,86.869,0,0,0,3.6-9.31c.51-1.59.9-3.2,1.35-4.8l.66-2.41c.19-.81.33-1.62.5-2.43l.94-4.89c.24-1.63.4-3.27.61-4.91.48-3.28.52-6.57.71-9.85.12-1.65,0-3.28,0-4.92l-.11-4.91c-.2-3.26-.51-6.5-.78-9.75l-.59-7.27-7.09,1.68c-3.17.74-6.35,1.44-9.51,2.25l-4.71,1.4c-1.57.48-3.15.89-4.68,1.52-3.07,1.18-6.18,2.23-9.15,3.7-1.5.69-3,1.35-4.5,2.08l-4.35,2.4c-.72.41-1.46.79-2.17,1.22l-2.09,1.36c-1.38.92-2.8,1.79-4.15,2.76-2.46,1.85-4.91,3.69-7.18,5.77-.06,5.08-.18,10.16,0,15.23a88.621,88.621,0,0,1,6.81-6.06Z" transform="translate(-320.91 -313.78)" fill="#fff"/>
            <path id="Path_273" data-name="Path 273" d="M653.68,544.85c-1.7-2.78-3.35-5.59-5.11-8.34l-2.8-4c-.94-1.33-1.82-2.71-2.9-4-2.09-2.54-4-5.17-6.37-7.54-1.13-1.21-2.23-2.44-3.38-3.62L629.48,514c-.61-.56-1.21-1.14-1.84-1.68l-1.94-1.56c-1.31-1-2.57-2.1-3.91-3.08a88.257,88.257,0,0,0-8.4-5.41A46.42,46.42,0,0,0,609,499.9c-1.25-.59-2.49-1.22-3.75-1.78-1.38,2.5-3.12,4.78-4.72,7.15a10.6,10.6,0,0,1-1.61,1.83,87.926,87.926,0,0,1,8.56,4.88c2.49,1.52,4.75,3.39,7.1,5.11,1.14.91,2.21,1.92,3.32,2.86l1.66,1.44c.53.5,1,1,1.56,1.55A121.153,121.153,0,0,1,638.7,545c-.53.23-1.07.47-1.61.69-2.8,1-5.57,2.11-8.4,2.94s-5.65,1.8-8.54,2.36c-1.43.32-2.87.67-4.31,1l-4.34.69c-.72.12-1.44.26-2.17.35l-2.18.2c-1.46.12-2.91.3-4.37.37-2.91,0-5.84.22-8.74,0-2.42-.12-4.83-.36-7.23-.67a83.213,83.213,0,0,1,7.09,8.68,7,7,0,0,1,1.22,3.56c2.66.24,5.33.27,8,.32,1.66,0,3.32-.15,5-.22l2.49-.13c.83-.07,1.65-.19,2.47-.28l4.93-.63c1.63-.28,3.24-.64,4.86-1,3.27-.56,6.4-1.55,9.59-2.39,1.6-.4,3.12-1,4.67-1.53l4.63-1.64c3-1.2,6-2.51,9-3.78l6.72-2.83Z" transform="translate(-320.91 -313.78)" fill="#fff"/>
            <path id="Path_274" data-name="Path 274" d="M543.13,406.2l-.39-6.42c-.18-2.13-.55-4.24-.82-6.37a61.773,61.773,0,0,0-1.17-6.33,115.933,115.933,0,0,0-3.31-12.42c-.67-2-1.49-4-2.23-6l-1.15-3c-.41-1-.88-1.93-1.32-2.91L530,356.94c-1-1.88-2.07-3.72-3.1-5.58-2-3.77-4.43-7.22-6.72-10.79-1.12-1.8-2.46-3.43-3.72-5.12l-3.84-5c-2.68-3.24-5.46-6.38-8.2-9.55l-6.13-7.11v25.4c.49.56,1,1.12,1.47,1.7,2.3,3.05,4.8,6,6.93,9.13s4.44,6.21,6.27,9.52c1,1.63,2,3.25,2.89,4.89l2.57,5c.42.84.89,1.67,1.28,2.52l1.11,2.59c.72,1.74,1.53,3.45,2.19,5.21,1.19,3.55,2.57,7.06,3.45,10.71A101.06,101.06,0,0,1,530,412.73a116.621,116.621,0,0,1-7,45.2,148.349,148.349,0,0,1-9.57,21.59q-2.79,5.26-6,10.31t-6.86,9.92A110.923,110.923,0,0,0,517.34,482a136.344,136.344,0,0,0,13.22-20.87,124.359,124.359,0,0,0,8.91-23.41,109.781,109.781,0,0,0,3.65-25.14C543.12,410.47,543.22,408.33,543.13,406.2Z" transform="translate(-320.91 -313.78)" fill="#fff"/>
            <path id="Path_275" data-name="Path 275" d="M523.19,591a79.172,79.172,0,0,1-2.78,16.43c-.69,2.83-1.79,5.55-2.72,8.31-.52,1.36-1.16,2.69-1.72,4l-.87,2c-.31.66-.67,1.3-1,2a120.736,120.736,0,0,1-15.73,23.46l-.05-.06v19.73l4.72-5.44c2.14-2.47,4.31-4.89,6.4-7.4l3-3.89c1-1.3,2-2.56,2.9-4,1.8-2.76,3.71-5.43,5.27-8.36.8-1.44,1.64-2.86,2.42-4.32l2.13-4.5c.34-.75.72-1.49,1-2.25l.9-2.33c.58-1.55,1.23-3.08,1.76-4.66a89.69,89.69,0,0,0,2.61-9.64c.36-1.63.73-3.25.93-4.91.18-1.38.4-2.76.56-4.14A64.889,64.889,0,0,1,523.19,591Z" transform="translate(-320.91 -313.78)" fill="#fff"/>
            <path id="Path_276" data-name="Path 276" d="M329.68,439.78c3.87-1.65,7.69-3.35,11.59-4.93l6-2.13c2-.69,3.94-1.48,6-2,4.09-1.11,8.11-2.39,12.32-3.14,2.08-.42,4.15-.89,6.25-1.27l6.34-.83c1.06-.12,2.11-.29,3.18-.38l3.2-.18c2.14-.1,4.27-.29,6.41-.31a114.75,114.75,0,0,1,12.84.61,62.119,62.119,0,0,1,6.38.8c2.11.38,4.24.66,6.32,1.15l6.23,1.57c2.07.56,4.08,1.3,6.11,1.94A114.65,114.65,0,0,1,469,455.27c.06,3.69.27,7.37.53,11.05-1.19-.95-2.38-1.91-3.6-2.81a116.74,116.74,0,0,0-41-20.34,100.271,100.271,0,0,0-22.28-3.34c-3.74-.28-7.51,0-11.26.05-1.87.1-3.75.35-5.62.51l-2.81.27c-.93.12-1.86.31-2.79.46a155.525,155.525,0,0,0-35,10c.39.64.77,1.29,1.17,1.93,2.22,3.11,4.26,6.37,6.61,9.37s4.58,6.1,7.18,8.85c1.27,1.4,2.5,2.85,3.79,4.23l4,4c.67.66,1.32,1.35,2,2l2.14,1.84c1.44,1.21,2.82,2.49,4.3,3.66,3,2.21,6,4.59,9.17,6.52a100,100,0,0,0,20.11,10.12,116.71,116.71,0,0,0,45.2,7c1.9,0,3.79-.13,5.69-.26-1.85,1-3.67,2.13-5.45,3.31a9.66,9.66,0,0,0-4.09,5.71,124.4,124.4,0,0,1-20.36.79,109.53,109.53,0,0,1-25.06-4.13c-2-.65-4.11-1.2-6.12-1.93l-6-2.31c-2-.82-3.88-1.81-5.83-2.72a60.3,60.3,0,0,1-5.67-3,113.65,113.65,0,0,1-10.84-6.92c-1.74-1.25-3.37-2.63-5.06-3.94l-2.51-2c-.82-.69-1.58-1.43-2.38-2.15l-4.7-4.34c-1.49-1.52-2.91-3.09-4.37-4.64-3-3-5.55-6.41-8.25-9.68-1.39-1.61-2.53-3.38-3.76-5.09l-3.63-5.18c-2.27-3.53-4.42-7.13-6.62-10.7l-4.92-8Z" transform="translate(-320.91 -313.78)" fill="#fff"/>
            <path id="Path_277" data-name="Path 277" d="M496.51,498.36a111.815,111.815,0,0,0-24,4.26,137.132,137.132,0,0,0-23,8.91,115.611,115.611,0,0,0-39,31.53c-1.27,1.72-2.62,3.38-3.82,5.15l-3.51,5.38c-1.13,1.82-2.09,3.74-3.13,5.61a63.018,63.018,0,0,0-2.83,5.78,116.007,116.007,0,0,0-4.74,11.95c-.67,2-1.19,4.1-1.78,6.16l-.87,3.09c-.26,1-.44,2.09-.67,3.13l-1.27,6.27c-.32,2.11-.55,4.22-.83,6.33-.65,4.21-.74,8.44-1,12.67-.19,2.12-.08,4.22-.07,6.33l.09,6.32c.23,4.19.6,8.37.9,12.55l.67,9.35,9.16-2.06c4.1-.93,8.2-1.79,12.28-2.8l6.07-1.75c2-.61,4.06-1.12,6-1.9,4-1.5,8-2.82,11.82-4.67,1.94-.88,3.89-1.71,5.81-2.63l5.64-3c.93-.52,1.88-1,2.79-1.55l2.71-1.73c1.79-1.17,3.62-2.27,5.37-3.51a112.508,112.508,0,0,0,10.06-8,62.785,62.785,0,0,0,4.7-4.39c1.49-1.54,3-3,4.46-4.63l4.12-4.92c1.35-1.66,2.55-3.44,3.82-5.16a109.293,109.293,0,0,0,12-22.37,124.324,124.324,0,0,0,6.78-24.12,136.283,136.283,0,0,0,1.8-24.64,110.81,110.81,0,0,0-2.92-24.3c.07,4-.07,8.06-.39,12.05S499,521,498.44,525a149,149,0,0,1-5.15,23A116.83,116.83,0,0,1,472,588.49a101.61,101.61,0,0,1-16.1,15.75c-2.87,2.41-6.07,4.41-9.15,6.55-1.58,1-3.24,1.92-4.85,2.88l-2.44,1.43c-.82.45-1.69.84-2.53,1.26l-5.07,2.52c-1.73.78-3.49,1.47-5.23,2.22-3.45,1.57-7.12,2.65-10.71,3.92s-7.34,2.12-11,3.21c-3.73.89-7.51,1.63-11.26,2.48l9.83,7.28a161.22,161.22,0,0,1,1.1-45.58c.16-.93.28-1.87.47-2.79l.65-2.74c.46-1.83.83-3.68,1.34-5.49,1.16-3.56,2.13-7.21,3.61-10.66a100.106,100.106,0,0,1,10.38-20,116.578,116.578,0,0,1,32.52-32.18,149.243,149.243,0,0,1,20.55-11.63q5.37-2.58,11-4.69T496.51,498.36Z" transform="translate(-322.503 -312.211)" fill="#fff"/>
            <path id="Path_278" data-name="Path 278" d="M453,399.82c-2.21-1.9-4.69-3.46-7.06-5.15-1.22-.8-2.51-1.51-3.76-2.27l-1.88-1.12c-.64-.36-1.31-.67-2-1a120.828,120.828,0,0,0-26.48-9.82c-.05.58-.11,1.17-.15,1.75,0,3-.27,6-.18,8.9s.06,5.93.43,8.85c.14,1.46.25,2.93.42,4.39l.69,4.34c.12.73.21,1.46.35,2.17l.49,2.14c.34,1.42.62,2.86,1,4.27.87,2.77,1.61,5.61,2.73,8.3a80.452,80.452,0,0,0,6.44,13.19c-4.37-.22-8.73-.67-13.1-1.13-.57-1.05-1.13-2.11-1.71-3.16-.82-1.45-1.48-3-2.16-4.5a91.476,91.476,0,0,1-3.6-9.32c-.51-1.58-.9-3.2-1.35-4.8l-.65-2.41c-.2-.8-.33-1.62-.5-2.43l-1-4.88c-.23-1.64-.4-3.28-.6-4.92-.48-3.28-.53-6.56-.72-9.85-.12-1.65,0-3.28,0-4.92l.11-4.91c.2-3.25.51-6.5.78-9.74l.6-7.27,7.08,1.67c3.18.75,6.36,1.44,9.52,2.25l4.71,1.4c1.56.48,3.14.89,4.67,1.52,3.07,1.19,6.18,2.24,9.16,3.7,1.5.69,3,1.36,4.49,2.08l4.36,2.4c.72.41,1.45.79,2.16,1.23l2.09,1.36c1.39.92,2.8,1.78,4.16,2.75,2.45,1.85,4.91,3.7,7.18,5.77.05,5.08.18,10.16,0,15.23a84.87,84.87,0,0,0-6.72-6.06Z" transform="translate(-320.91 -313.78)" fill="#fff"/>
            <path id="Path_279" data-name="Path 279" d="M343,544.84c1.71-2.78,3.36-5.59,5.11-8.34l2.8-4c1-1.34,1.83-2.72,2.9-4,2.09-2.55,4.06-5.18,6.38-7.55,1.12-1.21,2.22-2.43,3.38-3.62l3.64-3.39c.61-.55,1.2-1.13,1.83-1.67l2-1.56c1.3-1,2.57-2.11,3.91-3.09a90.105,90.105,0,0,1,8.39-5.41,49,49,0,0,1,4.4-2.37c1.25-.59,2.48-1.21,3.74-1.78,1.39,2.5,3.12,4.78,4.73,7.16a10.148,10.148,0,0,0,1.61,1.83,84,84,0,0,0-8.56,4.88c-2.5,1.51-4.76,3.38-7.1,5.11-1.14.91-2.22,1.91-3.33,2.86l-1.65,1.44c-.54.49-1,1-1.56,1.55A120.522,120.522,0,0,0,358,545l1.61.68c2.81,1,5.57,2.11,8.41,2.94s5.65,1.8,8.53,2.36c1.44.32,2.87.68,4.31,1l4.34.7c.72.11,1.45.25,2.17.34l2.18.2c1.46.12,2.92.31,4.37.38,2.92,0,5.84.21,8.75,0,2.41-.12,4.82-.35,7.22-.67a82.31,82.31,0,0,0-7.09,8.69,6.921,6.921,0,0,0-1.22,3.56c-2.66.23-5.33.26-8,.31-1.66,0-3.32-.14-5-.21l-2.49-.13c-.83-.07-1.64-.19-2.47-.29l-4.93-.62c-1.63-.29-3.24-.64-4.86-1-3.27-.57-6.4-1.55-9.58-2.4-1.61-.39-3.13-1-4.68-1.53l-4.63-1.63c-3-1.21-6-2.52-9-3.78l-6.72-2.84Z" transform="translate(-320.91 -313.78)" fill="#fff"/>
            <path id="Path_280" data-name="Path 280" d="M453.55,406.19l.38-6.41c.18-2.14.55-4.25.83-6.38a63.87,63.87,0,0,1,1.16-6.32,116.126,116.126,0,0,1,3.31-12.43c.67-2,1.49-4,2.24-6l1.14-3c.41-1,.89-1.94,1.33-2.91l2.72-5.8c1-1.88,2.06-3.71,3.09-5.57,2-3.78,4.43-7.23,6.73-10.79,1.12-1.81,2.45-3.44,3.72-5.12l3.83-5c2.68-3.23,5.46-6.37,8.2-9.55l6.13-7.11v25.4c-.49.57-1,1.13-1.47,1.7-2.29,3.06-4.79,6-6.93,9.13s-4.44,6.21-6.26,9.52c-1,1.64-2,3.25-2.89,4.9l-2.58,5c-.42.84-.88,1.67-1.28,2.52l-1.11,2.6c-.72,1.73-1.52,3.44-2.18,5.2-1.2,3.56-2.58,7.07-3.45,10.72a100.486,100.486,0,0,0-3.56,22.23,116.851,116.851,0,0,0,7,45.21,149.313,149.313,0,0,0,9.57,21.58c1.86,3.51,3.87,7,6,10.32s4.4,6.7,6.86,9.91A111.3,111.3,0,0,1,479.33,482a137.682,137.682,0,0,1-13.22-20.88,124.784,124.784,0,0,1-8.91-23.41,109.783,109.783,0,0,1-3.65-25.14C453.55,410.47,453.46,408.32,453.55,406.19Z" transform="translate(-320.91 -313.78)" fill="#fff"/>
            <path id="Path_281" data-name="Path 281" d="M473.49,591a78.542,78.542,0,0,0,2.78,16.42c.69,2.84,1.78,5.56,2.72,8.31.52,1.37,1.15,2.69,1.72,4l.87,2c.31.66.67,1.3,1,2a121,121,0,0,0,15.74,23.45h0v19.73l-4.72-5.45c-2.13-2.46-4.31-4.89-6.4-7.39l-3-3.89c-1-1.31-2-2.57-2.9-4-1.79-2.76-3.7-5.43-5.26-8.36-.81-1.44-1.65-2.86-2.43-4.32l-2.09-4.5c-.34-.75-.71-1.49-1-2.26l-.91-2.32c-.58-1.56-1.22-3.09-1.75-4.67a90.819,90.819,0,0,1-2.62-9.64,47.5,47.5,0,0,1-.92-4.9c-.19-1.39-.41-2.76-.57-4.15A64.439,64.439,0,0,0,473.49,591Z" transform="translate(-320.91 -313.78)" fill="#fff"/>
            <circle id="Ellipse_200" data-name="Ellipse 200" cx="15.38" cy="15.38" r="15.38" transform="translate(201.94 115.49)" fill="#fff"/>
            <circle id="Ellipse_201" data-name="Ellipse 201" cx="15.38" cy="15.38" r="15.38" transform="translate(227.13 191.45)" fill="#fff"/>
            <circle id="Ellipse_202" data-name="Ellipse 202" cx="15.38" cy="15.38" r="15.38" transform="translate(122.14 115.48)" fill="#fff"/>
            <circle id="Ellipse_203" data-name="Ellipse 203" cx="15.38" cy="15.38" r="15.38" transform="translate(96.96 191.45)" fill="#fff"/>
            <circle id="Ellipse_204" data-name="Ellipse 204" cx="24.52" cy="24.52" r="24.52" transform="translate(152.9 161.44)" fill="#fff"/>
            <circle id="Ellipse_205" data-name="Ellipse 205" cx="15.38" cy="15.38" r="15.38" transform="translate(162.02 238.9)" fill="#fff"/>
          </g>
        </g>
      </g>
    </g>
  </g>
</svg>
