<svg id="logo-name" data-name="Relica" xmlns="http://www.w3.org/2000/svg" viewBox="0 0 271 106"><path d="M102.9,78.26a6.38,6.38,0,0,1,.77,3.38,9.69,9.69,0,0,1-2,6.37,44.42,44.42,0,0,1-10,9.18,21.5,21.5,0,0,1-11.91,3.24,18,18,0,0,1-11.34-3.6q-4.66-3.58-8.87-12.31-3.39-7-5.34-10.32a16.37,16.37,0,0,0-3.85-4.77,9.21,9.21,0,0,0-4.67-1.74q-.42,2.15-2.36,13.54c-.55,3.43-.89,5.51-1,6.27q-1,6.25-4.1,9.59T29,100.43a19.42,19.42,0,0,1-12.17-4.06A25.85,25.85,0,0,1,8.62,85.08,44.43,44.43,0,0,1,5.75,68.61q0-17.25,6-29.77A44.25,44.25,0,0,1,28.59,19.7a47,47,0,0,1,25-6.62q9.86,0,16.52,3A21.49,21.49,0,0,1,80,24.27a22.06,22.06,0,0,1,3.23,11.8,25.08,25.08,0,0,1-2.72,11.24A27.86,27.86,0,0,1,72.36,57a36.55,36.55,0,0,1-13.24,6.26,15.28,15.28,0,0,1,7.6,4.31,36.07,36.07,0,0,1,5.33,8.73,33.28,33.28,0,0,0,5.7,9,8.85,8.85,0,0,0,6.52,2.87A10.36,10.36,0,0,0,90.53,86,49.81,49.81,0,0,0,98,78.46,3.62,3.62,0,0,1,100.79,77,2.39,2.39,0,0,1,102.9,78.26ZM31.62,67.58c-2.33,0-3.92-.54-4.78-1.64a5.85,5.85,0,0,1-1.28-3.69,5,5,0,0,1,1.59-3.9,5.26,5.26,0,0,1,3.64-1.44h2.57Q35,46.85,36.44,39.56q1.34-6.66,8.62-6.67,5.85,0,5.85,5.24a11.11,11.11,0,0,1-.1,1.74l-3.08,17a24.76,24.76,0,0,0,10.11-2.67,18.8,18.8,0,0,0,7.29-6.57,17.19,17.19,0,0,0,2.72-9.54A12.55,12.55,0,0,0,63.43,28Q59,24.27,50.5,24.27a31.2,31.2,0,0,0-17.6,5q-7.54,5-11.75,14.78T16.94,67.89a41.88,41.88,0,0,0,1.33,11.29,19.49,19.49,0,0,0,3.29,7.08c1.3,1.58,2.53,2.36,3.69,2.36a2.57,2.57,0,0,0,2.21-1.33A12,12,0,0,0,28.84,83Z"/><path d="M141.18,78.26a6.38,6.38,0,0,1,.77,3.38A9.46,9.46,0,0,1,140,88a37.46,37.46,0,0,1-10.73,8.52,29.72,29.72,0,0,1-14.83,3.9q-10.77,0-16.73-5.85t-5.95-16a29.6,29.6,0,0,1,3-13.19,24.26,24.26,0,0,1,8.26-9.7,20.74,20.74,0,0,1,12-3.6,13,13,0,0,1,9.54,3.55q3.6,3.54,3.59,9.59A16.61,16.61,0,0,1,123,77.39q-5.07,5.07-17.19,8,2.57,4.73,9.75,4.72,4.62,0,10.52-3.23a34.86,34.86,0,0,0,10.22-8.47A3.61,3.61,0,0,1,139.08,77,2.37,2.37,0,0,1,141.18,78.26ZM106.8,66.56a20.51,20.51,0,0,0-2.62,10.67v.21a23.45,23.45,0,0,0,9.55-4.31,8.49,8.49,0,0,0,3.48-6.68,4.47,4.47,0,0,0-1.07-3.13,3.8,3.8,0,0,0-2.93-1.18C110.68,62.14,108.54,63.62,106.8,66.56Z"/><path d="M174.64,78.26a6.38,6.38,0,0,1,.77,3.38A9.46,9.46,0,0,1,173.46,88a44.08,44.08,0,0,1-9.6,8.93,20.59,20.59,0,0,1-11.75,3.49q-9,0-13.39-8.21T134.35,71a145.55,145.55,0,0,1,3.24-28.53,96.51,96.51,0,0,1,9.54-27.51q6.31-11.49,15-11.49A8.71,8.71,0,0,1,169.92,8q2.82,4.58,2.82,13.09,0,12.21-6.77,28.33a156.88,156.88,0,0,1-18.38,31.92q.72,4.2,2.37,6a5.55,5.55,0,0,0,4.31,1.8,12,12,0,0,0,7.39-2.41,56.44,56.44,0,0,0,8.1-8.27A3.63,3.63,0,0,1,172.54,77,2.37,2.37,0,0,1,174.64,78.26ZM154.57,22.11a140.25,140.25,0,0,0-5.23,21.15,151.62,151.62,0,0,0-2.46,24.22,132.34,132.34,0,0,0,11.59-24.07,65.82,65.82,0,0,0,4.31-22c0-5.2-.95-7.8-2.87-7.8Q157.56,13.6,154.57,22.11Z"/><path d="M170,95.71q-3-4.72-3-12.53a76.14,76.14,0,0,1,1.18-11.85,112.07,112.07,0,0,1,3-13.5,8.74,8.74,0,0,1,2.46-4.51,7.91,7.91,0,0,1,4.93-1.24c3.49,0,5.23,1.17,5.23,3.49,0,1.72-.65,5.68-1.95,11.91q-2.46,11.3-2.46,15.29a10.83,10.83,0,0,0,.82,4.73A2.86,2.86,0,0,0,183,89.14q1.84,0,4.62-2.57A90.85,90.85,0,0,0,195,78.46,3.62,3.62,0,0,1,197.78,77a2.39,2.39,0,0,1,2.11,1.23,6.38,6.38,0,0,1,.77,3.38A9.46,9.46,0,0,1,198.71,88q-10.17,12.42-19,12.42Q173,100.43,170,95.71Zm4-52.4a7.27,7.27,0,0,1-2.15-5.59,7.59,7.59,0,0,1,2.82-6,10.42,10.42,0,0,1,7-2.41,9.74,9.74,0,0,1,6.16,1.85,6.26,6.26,0,0,1,2.36,5.23,8.35,8.35,0,0,1-2.67,6.52,10.15,10.15,0,0,1-7.08,2.41Q176.24,45.31,174.07,43.31Z"/><path d="M196.29,94.73q-5.59-5.7-5.59-15A30.91,30.91,0,0,1,194,65.12a25.07,25.07,0,0,1,8.52-9.65,19.89,19.89,0,0,1,11-3.39q5.66,0,8.78,3.34A12,12,0,0,1,225.39,64a13.28,13.28,0,0,1-1.9,7.29,5.7,5.7,0,0,1-5,3,4.92,4.92,0,0,1-3.13-.92,3.08,3.08,0,0,1-1.18-2.56,7.59,7.59,0,0,1,.21-1.65c.13-.61.24-1.06.31-1.33a9.22,9.22,0,0,0,.51-2.88,2.89,2.89,0,0,0-.67-2,2.46,2.46,0,0,0-1.9-.72,6.13,6.13,0,0,0-4.41,2.11A14.93,14.93,0,0,0,205,69.94a24.3,24.3,0,0,0-1.24,7.91q0,11.91,10.37,11.9a18.31,18.31,0,0,0,9.08-2.82,36.94,36.94,0,0,0,9.6-8.47A3.62,3.62,0,0,1,235.55,77a2.39,2.39,0,0,1,2.11,1.23,6.38,6.38,0,0,1,.77,3.38,10,10,0,0,1-2,6.37,33.26,33.26,0,0,1-11.55,9.18,29.84,29.84,0,0,1-13,3.24Q201.89,100.43,196.29,94.73Z"/><path d="M231.4,95.81q-3.65-4.62-3.65-12.11a33.37,33.37,0,0,1,3.8-15.55,32.45,32.45,0,0,1,10.11-11.81,22.83,22.83,0,0,1,13.39-4.46q2.26,0,3,.87a7.41,7.41,0,0,1,1.28,3.13,21.24,21.24,0,0,1,4.31-.41,5.4,5.4,0,0,1,3.8,1.23,4.52,4.52,0,0,1,1.34,3.49,56.45,56.45,0,0,1-1,8.21q-1.12,6.27-1.74,12a117.35,117.35,0,0,0-.62,12.78q0,3.9-1.59,5.59t-5.18,1.7a7.07,7.07,0,0,1-5.19-1.7q-1.69-1.7-1.69-5.49l.1-1.64q-3.18,8.84-11,8.83A11.51,11.51,0,0,1,231.4,95.81Zm18.73-9.75q2.35-4,4.2-14.27l2-10.36a12.08,12.08,0,0,0-7.81,3.23,22.05,22.05,0,0,0-5.74,8.26,27.76,27.76,0,0,0-2.16,10.88,7.75,7.75,0,0,0,1.18,4.67,3.71,3.71,0,0,0,3.13,1.59C246.81,90.06,248.55,88.73,250.13,86.06Z"/></svg>