<svg xmlns="http://www.w3.org/2000/svg" width="973.618" height="973.62" viewBox="0 0 973.618 973.62"><defs><style>.a,.b{fill:#949494;stroke:#949494;}.a{stroke-width:15px;}.b{stroke-width:20px;}</style></defs><g transform="translate(7.502 7.5)"><path class="a" d="M962.118,234.719h0a13.8,13.8,0,0,0-2.3-7.669h0L827.86,12.7a19.565,19.565,0,0,0-16.495-9.2H153.888a19.565,19.565,0,0,0-16.494,9.2L5.822,225.133h0a12.65,12.65,0,0,0-2.3,7.286h0v89.343a71.314,71.314,0,0,0,32.989,61.352V942.948a19.176,19.176,0,0,0,19.18,19.172H909.949a19.176,19.176,0,0,0,19.18-19.172V385.414a70.932,70.932,0,0,0,32.989-60.968V234.719ZM164.629,41.845h636L908.415,214.4H56.839Zm627.557,210.9v70.171a30.3,30.3,0,0,1-26.851,32.976H726.975c-15.727,0-21.865-4.6-24.55-8.436a87.007,87.007,0,0,1-2.3-24.541V252.741Zm-131.572,0v70.171a30.3,30.3,0,0,1-26.852,32.976H595.4c-20.714,0-23.016-8.436-25.317-16.488V252.741Zm-131.572,0v70.171a30.3,30.3,0,0,1-26.852,32.976H463.831a30.3,30.3,0,0,1-26.851-32.977V252.741Zm-131.189,0v70.171A30.679,30.679,0,0,1,371,355.889H332.642a30.3,30.3,0,0,1-26.851-32.977V252.741ZM266.281,283.417v38.345a34.888,34.888,0,0,1-12.659,27.225,38.367,38.367,0,0,1-14.193,5.752H201.07a30.3,30.3,0,0,1-26.851-32.977V252.741h93.213ZM66.046,356.656a30.678,30.678,0,0,1-24.55-32.21v-71.7h93.213v70.171a33.738,33.738,0,0,1-12.275,26.841,74.057,74.057,0,0,1-34.523,6.135H70.265Zm328.739,567.12H206.057V572.92h191.8Zm495.985,0H433.144l3.069-370.027a21.086,21.086,0,0,0-5.754-13.8,19.183,19.183,0,0,0-13.426-5.368H186.877a19.176,19.176,0,0,0-19.18,19.172V923.775H74.485V395.767h33.373a61.388,61.388,0,0,0,38.359-14.954,25.706,25.706,0,0,0,4.219-2.684,62.923,62.923,0,0,0,48.333,17.639h38.359A59.086,59.086,0,0,0,275.487,381.2a25.7,25.7,0,0,0,5.37-3.451,70.6,70.6,0,0,0,47.949,18.022h38.359a51.418,51.418,0,0,0,15.344-2.3A69.062,69.062,0,0,0,413.2,381.2a65.608,65.608,0,0,0,30.3,12.27,51.8,51.8,0,0,0,15.727,2.3h38.359a67.533,67.533,0,0,0,15.344-2.3,57.934,57.934,0,0,0,28.386-12.27,69.449,69.449,0,0,0,47.949,14.571h38.359a71.367,71.367,0,0,0,45.264-13.421,61.773,61.773,0,0,0,31.071,12.27,97.474,97.474,0,0,0,15.727,0h59.457a73.668,73.668,0,0,0,34.14-11.887,70.979,70.979,0,0,0,18.8,7.669,57.173,57.173,0,0,0,25.317,5.752H890.77Zm32.989-599.329a30.678,30.678,0,0,1-24.933,32.21H876.193a134.694,134.694,0,0,1-29.92-3.068,34.123,34.123,0,0,1-15.727-29.909V252.741h93.213Z" transform="translate(-3.51 -3.5)"/><path class="b" d="M193.1,17.35H30.08c-6.549,0-11.892,6.312-12.022,14.2L16.375,165.108a15.233,15.233,0,0,0,3.366,10.43,10.67,10.67,0,0,0,8.656,4.346H193.1c6.64,0,12.022-6.486,12.022-14.486V31.836C205.123,23.836,199.74,17.35,193.1,17.35ZM181.078,152.07H40.66L42.1,47.481H181.078Z" transform="translate(545.082 520.586)"/></g></svg>