<svg xmlns="http://www.w3.org/2000/svg" width="414" height="414" viewBox="0 0 414 414">
  <g id="Group_258" data-name="Group 258" transform="translate(15 15)">
    <path id="Path_226" data-name="Path 226" d="M441.752,100.418l-30.17-30.17a21.334,21.334,0,0,0-30.17,0l-225.83,225.83a21.332,21.332,0,0,0-6.248,15.085v51.5h51.5a21.337,21.337,0,0,0,15.085-6.248l225.83-225.83A21.334,21.334,0,0,0,441.752,100.418Z" transform="translate(-64 -64)" fill="none" stroke="#cfcfcf" stroke-linecap="round" stroke-linejoin="round" stroke-miterlimit="10" stroke-width="30"/>
    <line id="Line_224" data-name="Line 224" x1="60.34" y1="60.34" transform="translate(279.163 44.497)" fill="none" stroke="#cfcfcf" stroke-linecap="round" stroke-linejoin="round" stroke-miterlimit="10" stroke-width="30"/>
    <path id="Path_227" data-name="Path 227" d="M448,234.667V405.334A42.667,42.667,0,0,1,405.333,448H106.667A42.667,42.667,0,0,1,64,405.333V106.667A42.667,42.667,0,0,1,106.667,64H277.334" transform="translate(-64 -64)" fill="none" stroke="#cfcfcf" stroke-linecap="round" stroke-linejoin="round" stroke-miterlimit="10" stroke-width="30"/>
  </g>
</svg>
