<svg xmlns="http://www.w3.org/2000/svg" width="20" height="20" viewBox="0 0 24.026 24.412">
  <path id="relica-star-filled_1_" data-name="relica-star-filled (1)" d="M38.265,34.99l2.441,6.464,6.5.506a1.723,1.723,0,0,1,.893,3.034l-5.058,4.452,1.553,6.7a1.624,1.624,0,0,1-2.451,1.83L36.572,54.26,31.03,57.9a1.632,1.632,0,0,1-2.4-1.9l1.62-6.749L25.271,44.8a1.716,1.716,0,0,1,.966-3.006l6.564-.456,2.462-6.387A1.576,1.576,0,0,1,38.265,34.99Z" transform="translate(-24.694 -33.873)" fill="#ff424b" fill-rule="evenodd"/>
</svg>