<svg xmlns="http://www.w3.org/2000/svg" width="20.054" height="25" viewBox="0 0 20.054 25">
  <g id="Group_165" data-name="Group 165" transform="translate(-271.946 -45)">
    <g id="alarm" transform="translate(271.5 48.5)">
      <path id="Path_96" data-name="Path 96" d="M4.592,10.5a2.44,2.44,0,0,0,4.608,0" transform="translate(2.604 6.363)" fill="none" stroke="currentColor" stroke-width="1.6"/>
      <path id="Line_67" data-name="Line 67" d="M0,0H18" transform="translate(0.5 14.206)" fill="none" stroke="currentColor" stroke-width="1.6"/>
      <path id="Path_97" data-name="Path 97" d="M18.5,13.59a3.52,3.52,0,0,1-3.273-3.273V6.227A5.727,5.727,0,0,0,9.5.5h0A5.727,5.727,0,0,0,3.773,6.227v4.091A3.52,3.52,0,0,1,.5,13.59" fill="none" stroke="currentColor" stroke-width="1.6"/>
    </g>
    <circle id="Ellipse_43" data-name="Ellipse 43" cx="4.5" cy="4.5" r="4.5" transform="translate(283 45)" fill="#ff5454"/>
  </g>
</svg>
