<svg xmlns="http://www.w3.org/2000/svg" width="28.002" height="40.66" viewBox="0 0 28.002 40.66"><defs><style>.a{fill:#10a5f5;}</style></defs><g transform="translate(-54.818)"><path class="a" d="M82.14,21.071a2.161,2.161,0,0,0-1.653-.741H62.6V11.859A6.833,6.833,0,0,1,64.42,7.068a5.868,5.868,0,0,1,8.8,0,6.833,6.833,0,0,1,1.823,4.792A1.7,1.7,0,0,0,75.5,13.05a1.439,1.439,0,0,0,1.094.5h1.556a1.439,1.439,0,0,0,1.094-.5,1.706,1.706,0,0,0,.461-1.191,11.952,11.952,0,0,0-3.2-8.378,10.243,10.243,0,0,0-15.387,0,11.951,11.951,0,0,0-3.2,8.378V20.33h-.778a2.163,2.163,0,0,0-1.653.741,2.564,2.564,0,0,0-.681,1.8V38.119a2.565,2.565,0,0,0,.681,1.8,2.163,2.163,0,0,0,1.653.741H80.487a2.162,2.162,0,0,0,1.653-.741,2.567,2.567,0,0,0,.681-1.8V22.871A2.563,2.563,0,0,0,82.14,21.071Z" transform="translate(0 0)"/></g></svg>