<svg id="Component_293_1" data-name="Component 293 – 1" xmlns="http://www.w3.org/2000/svg" width="17" height="20.981" viewBox="0 0 17 20.981">
  <g id="Path_394" data-name="Path 394" transform="translate(13) rotate(90)" fill="#f2f2f2" stroke-linecap="round">
    <path d="M 14.66536808013916 12.14999961853027 L 2.315588474273682 12.14999961853027 C 1.507458567619324 12.14999961853027 0.8499985337257385 11.50216960906982 0.8499985337257385 10.7058801651001 L 0.8499985337257385 2.294120073318481 C 0.8499985337257385 1.497830033302307 1.507458567619324 0.8500000238418579 2.315588474273682 0.8500000238418579 L 14.66536808013916 0.8500000238418579 C 15.47349834442139 0.8500000238418579 16.13095855712891 1.497830033302307 16.13095855712891 2.294120073318481 L 16.13095855712891 5.916429996490479 L 16.13095855712891 10.7058801651001 C 16.13095855712891 11.50216960906982 15.47349834442139 12.14999961853027 14.66536808013916 12.14999961853027 Z" stroke="none"/>
    <path d="M 2.31558895111084 1.699999809265137 C 1.97614860534668 1.699999809265137 1.69999885559082 1.966520309448242 1.69999885559082 2.294119834899902 L 1.69999885559082 10.7058801651001 C 1.69999885559082 11.03347969055176 1.97614860534668 11.30000019073486 2.31558895111084 11.30000019073486 L 14.66536903381348 11.30000019073486 C 15.00480842590332 11.30000019073486 15.28095817565918 11.03347969055176 15.28095817565918 10.7058801651001 L 15.28095817565918 5.916429996490479 L 15.28095817565918 2.294119834899902 C 15.28095817565918 1.966520309448242 15.00480842590332 1.699999809265137 14.66536903381348 1.699999809265137 L 2.31558895111084 1.699999809265137 M 2.31558895111084 0 L 14.66536903381348 0 C 15.94423866271973 0 16.98095893859863 1.02711009979248 16.98095893859863 2.294119834899902 L 16.98095893859863 5.916429996490479 L 16.98095893859863 10.7058801651001 C 16.98095893859863 11.97288990020752 15.94423866271973 13 14.66536903381348 13 L 2.31558895111084 13 C 1.036718368530273 13 -1.9073486328125e-06 11.97288990020752 -1.9073486328125e-06 10.7058801651001 L -1.9073486328125e-06 2.294119834899902 C -1.9073486328125e-06 1.02711009979248 1.036718368530273 0 2.31558895111084 0 Z" stroke="none" fill="#10a5f5"/>
  </g>
  <g id="Path_395" data-name="Path 395" transform="translate(17 4) rotate(90)" fill="#f2f2f2" stroke-linecap="round">
    <path d="M 14.66536808013916 12.14999961853027 L 2.315588474273682 12.14999961853027 C 1.507458567619324 12.14999961853027 0.8499985337257385 11.50216960906982 0.8499985337257385 10.7058801651001 L 0.8499985337257385 2.294120073318481 C 0.8499985337257385 1.497830033302307 1.507458567619324 0.8500000238418579 2.315588474273682 0.8500000238418579 L 14.66536808013916 0.8500000238418579 C 15.47349834442139 0.8500000238418579 16.13095855712891 1.497830033302307 16.13095855712891 2.294120073318481 L 16.13095855712891 5.916429996490479 L 16.13095855712891 10.7058801651001 C 16.13095855712891 11.50216960906982 15.47349834442139 12.14999961853027 14.66536808013916 12.14999961853027 Z" stroke="none"/>
    <path d="M 2.31558895111084 1.699999809265137 C 1.97614860534668 1.699999809265137 1.69999885559082 1.966520309448242 1.69999885559082 2.294119834899902 L 1.69999885559082 10.7058801651001 C 1.69999885559082 11.03347969055176 1.97614860534668 11.30000019073486 2.31558895111084 11.30000019073486 L 14.66536903381348 11.30000019073486 C 15.00480842590332 11.30000019073486 15.28095817565918 11.03347969055176 15.28095817565918 10.7058801651001 L 15.28095817565918 5.916429996490479 L 15.28095817565918 2.294119834899902 C 15.28095817565918 1.966520309448242 15.00480842590332 1.699999809265137 14.66536903381348 1.699999809265137 L 2.31558895111084 1.699999809265137 M 2.31558895111084 0 L 14.66536903381348 0 C 15.94423866271973 0 16.98095893859863 1.02711009979248 16.98095893859863 2.294119834899902 L 16.98095893859863 5.916429996490479 L 16.98095893859863 10.7058801651001 C 16.98095893859863 11.97288990020752 15.94423866271973 13 14.66536903381348 13 L 2.31558895111084 13 C 1.036718368530273 13 -1.9073486328125e-06 11.97288990020752 -1.9073486328125e-06 10.7058801651001 L -1.9073486328125e-06 2.294119834899902 C -1.9073486328125e-06 1.02711009979248 1.036718368530273 0 2.31558895111084 0 Z" stroke="none" fill="#10a5f5"/>
  </g>
</svg>
