<svg xmlns="http://www.w3.org/2000/svg" width="22" height="22" viewBox="0 0 22 22"><defs><style>.a{opacity:0.5;}.b{fill:none;stroke:#4a4a4a;stroke-width:2px;}</style></defs><g transform="translate(1 1)"><g class="a"><path class="b" d="M12.5,0H1.875A1.922,1.922,0,0,0,0,1.875H0A1.922,1.922,0,0,0,1.875,3.75H12.5Z"/><path class="b" d="M18.75,5H0V16.25a2.507,2.507,0,0,0,2.5,2.5H18.75A1.181,1.181,0,0,0,20,17.5V6.25A1.181,1.181,0,0,0,18.75,5Zm-3.125,8.75A1.875,1.875,0,1,1,17.5,11.875,1.922,1.922,0,0,1,15.625,13.75Z" transform="translate(0 1.25)"/></g></g></svg>