<svg xmlns="http://www.w3.org/2000/svg" width="48.363" height="48.36" viewBox="0 0 48.363 48.36">
  <path id="earth-globe_icon-icons.com_70179" d="M24.182,0A24.18,24.18,0,1,0,48.363,24.18,24.252,24.252,0,0,0,24.182,0ZM39.9,16.019c1.209,0,2.116.907,3.325.907-.907,1.209-4.836,1.209-6.045-.3a7.219,7.219,0,0,1,2.72-.6ZM3.023,24.18a18.59,18.59,0,0,1,.3-3.929c.3,0,.6.3.907.3a1.055,1.055,0,0,1,.3.6,1.619,1.619,0,0,0,1.511,1.511c2.418.3,3.325,2.418,5.441,3.023.6.3.3.907,0,1.511-1.814,2.418-.3,4.232,1.209,5.743,1.511,1.209,1.511,2.418,1.814,4.231a17.228,17.228,0,0,0,1.209,6.649A21.676,21.676,0,0,1,3.023,24.18ZM24.182,45.338a21.482,21.482,0,0,1-6.348-.907,1.927,1.927,0,0,1,0-1.813,48.105,48.105,0,0,1,3.93-6.649,3.059,3.059,0,0,0,1.209-2.116,5.6,5.6,0,0,1,.6-2.116c.907-1.511.6-2.418-.6-2.72-2.418-.6-3.627-2.72-5.441-3.627s-3.627-1.511-5.139-.6c-.6.3-1.511.6-1.511-.3,0-1.209-1.511-2.116-1.209-3.325a1.11,1.11,0,0,0-.907.3c-.3.3-.6.6-1.209.3-.6-.6-.3-1.209-.3-1.813A2.36,2.36,0,0,1,8.464,18.74c1.209-.3,2.418-.3,3.023,1.209a10.323,10.323,0,0,1,4.534-5.441,21.312,21.312,0,0,1,2.72-2.116c.3,0,.6.6,1.209.907.6,0,.907,0,.907-.6.3-1.511-.6-3.325-1.814-3.627a.3.3,0,0,1,.3-.3c.907-.3,2.116-.907,1.814-1.814,0-1.209-1.209-1.813-2.418-1.813a3.834,3.834,0,0,0-1.814.3A10.014,10.014,0,0,1,12.393,6.65,20.153,20.153,0,0,1,24.182,3.023H26.6a18.249,18.249,0,0,0-4.836,1.511c1.814.3,2.116,1.209,1.511,2.72a1.1,1.1,0,0,0,.6,1.511c.6.3,1.209.3,1.511-.3a4.907,4.907,0,0,1,2.72-1.511,5.11,5.11,0,0,0,3.023-2.116c0-.3.3-.3.6-.6a24.5,24.5,0,0,1,5.441,3.023c-.3,0-.3.3-.6.3-.6.6-1.511.907-.6,2.116.3.6,0,.907-.3,1.209-.6.3-.907,0-1.209-.3s-.3-.907-1.209-.907c-.3.6-1.209.907-1.209,1.814,1.511,0,1.209,1.209,1.511,2.116-1.814.3-2.418,1.209-1.511,2.72.3.6-.3.907-.6,1.209-1.209,1.813-2.418,3.023-2.418,5.138s1.511,4.232,3.93,3.929c2.72-.3,2.72-.3,3.627,2.116,0,.3.3.6.3.907a2,2,0,0,1,.3,1.814c-.907,2.418.3,4.231,1.209,6.045a4.172,4.172,0,0,0,.907,1.209,20.116,20.116,0,0,1-15.114,6.65Z" fill="#939393"/>
</svg>
