<?xml version="1.0" standalone="no"?>
<!DOCTYPE svg PUBLIC "-//W3C//DTD SVG 20010904//EN"
 "http://www.w3.org/TR/2001/REC-SVG-20010904/DTD/svg10.dtd">
<svg version="1.0" xmlns="http://www.w3.org/2000/svg"
 width="367.000000pt" height="367.000000pt" viewBox="0 0 367.000000 367.000000"
 preserveAspectRatio="xMidYMid meet">
<metadata>
Created by potrace 1.11, written by Peter Selinger 2001-2013
</metadata>
<g transform="translate(0.000000,367.000000) scale(0.100000,-0.100000)"
fill="#000000" stroke="none">
<path d="M2149 3296 c-237 -175 -383 -376 -454 -621 -25 -87 -25 -91 -9 -127
21 -47 14 -110 -17 -151 -20 -28 -21 -37 -16 -126 4 -53 9 -117 13 -143 l7
-47 67 1 c79 0 144 -24 186 -71 l28 -32 54 53 c81 80 142 165 142 199 0 52 30
108 74 138 34 24 46 42 69 102 52 138 70 256 64 419 -3 80 -13 174 -21 210
-27 111 -79 260 -90 260 -6 0 -50 -29 -97 -64z"/>
<path d="M1291 3213 c-33 -73 -63 -213 -68 -323 l-6 -116 41 -27 c23 -15 72
-54 110 -86 l70 -60 38 20 c21 10 50 19 64 19 25 0 27 4 38 73 7 39 24 103 37
141 l24 69 -21 31 c-54 77 -196 209 -289 269 -25 17 -26 17 -38 -10z"/>
<path d="M457 2773 c-9 -15 56 -203 108 -309 82 -168 226 -333 377 -431 62
-40 73 -44 109 -38 49 9 121 -24 146 -66 24 -41 55 -48 177 -39 59 4 115 6
125 3 13 -3 21 6 31 37 8 23 32 59 57 83 32 31 42 47 38 62 -3 11 -15 56 -26
100 -26 98 -60 152 -111 172 -45 18 -74 52 -88 102 -7 28 -26 49 -85 94 -139
107 -299 179 -469 212 -100 20 -380 32 -389 18z"/>
<path d="M2730 2703 c-61 -6 -178 -32 -213 -46 -29 -13 -35 -22 -51 -78 -9
-34 -32 -95 -50 -134 -32 -68 -32 -72 -15 -83 10 -7 28 -30 39 -51 l20 -39
137 5 c135 5 139 5 164 33 57 60 134 215 173 348 l15 52 -92 -2 c-51 0 -108
-3 -127 -5z"/>
<path d="M2430 2137 c-14 -7 -38 -21 -53 -32 -23 -14 -40 -17 -92 -12 -83 8
-114 -3 -202 -74 -40 -32 -80 -62 -89 -67 -14 -8 -15 -14 -5 -42 14 -41 14
-100 0 -137 -10 -25 -8 -30 17 -48 15 -11 55 -43 89 -71 88 -74 120 -89 156
-74 16 7 51 10 80 8 39 -4 57 -12 84 -38 l33 -32 159 5 c129 4 175 10 253 31
120 33 288 117 408 203 l93 66 -23 25 c-35 36 -191 138 -288 187 -95 48 -221
89 -320 105 -93 14 -269 13 -300 -3z"/>
<path d="M584 2027 c-111 -45 -294 -161 -294 -186 0 -11 119 -95 190 -134 36
-20 95 -47 132 -61 l67 -26 78 56 c43 31 98 66 123 79 l45 23 -2 62 -1 62 -69
40 c-37 22 -91 57 -119 79 -28 21 -55 39 -60 39 -5 0 -45 -15 -90 -33z"/>
<path d="M1430 1834 c-152 -26 -209 -45 -236 -81 -34 -45 -73 -63 -136 -63
-48 0 -61 -5 -134 -55 -97 -66 -221 -192 -288 -293 -54 -82 -121 -226 -160
-347 -14 -44 -26 -81 -26 -82 0 -2 65 -3 144 -3 268 0 472 56 661 182 88 59
113 86 120 128 3 20 15 51 25 68 20 33 85 72 119 72 31 0 57 47 86 159 l28
105 -25 20 c-44 37 -77 91 -90 147 l-13 55 -75 -12z"/>
<path d="M1921 1663 c-41 -41 -90 -63 -146 -65 l-40 -2 -35 -86 c-36 -91 -37
-104 -27 -325 7 -148 67 -322 162 -466 63 -96 237 -269 345 -342 l85 -58 13
31 c23 57 61 199 77 287 29 170 15 373 -38 529 -31 90 -54 134 -70 134 -15 0
-59 45 -76 77 -6 12 -11 38 -11 59 0 25 -9 49 -27 73 -47 62 -164 191 -171
190 -4 -1 -22 -17 -41 -36z"/>
<path d="M2449 1378 c-6 -13 -22 -34 -35 -48 l-23 -25 28 -60 c16 -33 39 -93
52 -134 27 -84 35 -90 160 -116 95 -20 304 -32 313 -17 7 12 -44 162 -81 237
-13 28 -43 77 -65 110 l-40 61 -87 0 c-47 0 -114 3 -148 7 -58 7 -63 6 -74
-15z"/>
<path d="M1405 1049 c-17 -17 -68 -58 -114 -92 l-84 -61 7 -91 c8 -117 59
-329 86 -358 8 -10 146 92 212 157 26 25 66 71 89 101 l42 56 -27 87 c-14 48
-31 115 -37 148 -9 52 -14 61 -29 57 -16 -4 -62 5 -100 21 -10 4 -27 -5 -45
-25z"/>
</g>
</svg>
