<svg xmlns="http://www.w3.org/2000/svg" xmlns:xlink="http://www.w3.org/1999/xlink" width="260" height="171" viewBox="0 0 260 171">
  <defs>
    <filter id="Rectangle_66" x="0" y="0" width="260" height="171" filterUnits="userSpaceOnUse">
      <feOffset dx="7" dy="7" input="SourceAlpha"/>
      <feGaussianBlur stdDeviation="5" result="blur"/>
      <feFlood flood-opacity="0.204"/>
      <feComposite operator="in" in2="blur"/>
      <feComposite in="SourceGraphic"/>
    </filter>
  </defs>
  <g id="Component_471_1" data-name="Component 471 – 1" transform="translate(8 8)">
    <g id="Component_454_2" data-name="Component 454 – 2">
      <g id="Component_442_3" data-name="Component 442 – 3">
        <g id="Component_13" data-name="Component 13" transform="translate(-0.171 0.287)">
          <g transform="matrix(1, 0, 0, 1, -7.83, -8.29)" filter="url(#Rectangle_66)">
            <rect id="Rectangle_66-2" data-name="Rectangle 66" width="230" height="141" rx="70.5" transform="translate(8 8)" fill="#fff"/>
          </g>
        </g>
      </g>
    </g>
    <g id="questionmark_99738" transform="translate(-25.828 29.306)">
      <g id="Group_283" data-name="Group 283" transform="translate(116.828 0)">
        <path id="Path_437" data-name="Path 437" d="M147.655,74.636a8.517,8.517,0,0,0-.636-3.272,7.8,7.8,0,0,0-1.817-2.682,9.321,9.321,0,0,0-2.726-1.818,8.184,8.184,0,0,0-6.542,0,8.741,8.741,0,0,0-2.681,1.818,8.12,8.12,0,0,0-1.772,2.682,8.735,8.735,0,0,0,0,6.545,8.118,8.118,0,0,0,1.772,2.682,8.721,8.721,0,0,0,2.681,1.818,8.188,8.188,0,0,0,6.542,0A9.324,9.324,0,0,0,145.2,80.59a7.79,7.79,0,0,0,1.817-2.682A8.516,8.516,0,0,0,147.655,74.636ZM139.84,62.455h-.727a7.1,7.1,0,0,1-4.771-2.636,6.87,6.87,0,0,1-1.59-5.182,34.815,34.815,0,0,1,2.5-9.681,31.442,31.442,0,0,1,5.043-8.318,17.615,17.615,0,0,1,2.181-2.318q1.182-1.045,2.363-2.045a34.2,34.2,0,0,0,4.589-4.545,7.642,7.642,0,0,0,1.59-4.909,7.642,7.642,0,0,0-1.045-4.182,8.311,8.311,0,0,0-2.544-2.591,10.609,10.609,0,0,0-3.135-1.364,12.147,12.147,0,0,0-2.908-.409H141.2a10.958,10.958,0,0,0-4.18.682,7.818,7.818,0,0,0-2.771,1.909,10.787,10.787,0,0,0-1.908,2.954q-.772,1.727-1.59,3.727a8.657,8.657,0,0,1-2.635,3.954,7.27,7.27,0,0,1-6.633,1.045,6.927,6.927,0,0,1-2.908-2.091,8.23,8.23,0,0,1-1.545-3.045,7.767,7.767,0,0,1,.363-4.591q.545-1.727,1.908-4.954a22.86,22.86,0,0,1,4.135-6.318,24.9,24.9,0,0,1,7.133-5.363A22.74,22.74,0,0,1,141.476,0a27.215,27.215,0,0,1,8.587,1.591A23.515,23.515,0,0,1,157.65,6a22.487,22.487,0,0,1,5.452,7.136,21.565,21.565,0,0,1,2.09,9.681,21.248,21.248,0,0,1-1.09,7.09,23.725,23.725,0,0,1-2.771,5.545,25.439,25.439,0,0,1-3.635,4.272q-1.954,1.818-3.589,3.273-.909.818-1.727,1.5a7.308,7.308,0,0,0-1.272,1.318,19.121,19.121,0,0,0-2.771,4.682,18.717,18.717,0,0,0-1.408,5.591,6.7,6.7,0,0,1-2.317,4.591A7.059,7.059,0,0,1,139.84,62.455Z" transform="translate(-116.828 0)" fill="#10a5f5"/>
      </g>
    </g>
  </g>
</svg>
