<svg xmlns="http://www.w3.org/2000/svg" xmlns:xlink="http://www.w3.org/1999/xlink" width="129" height="82" viewBox="0 0 129 82">
  <defs>
    <filter id="Rectangle_66" x="0" y="0" width="129" height="82" filterUnits="userSpaceOnUse">
      <feOffset input="SourceAlpha"/>
      <feGaussianBlur stdDeviation="4" result="blur"/>
      <feFlood flood-opacity="0.302"/>
      <feComposite operator="in" in2="blur"/>
      <feComposite in="SourceGraphic"/>
    </filter>
  </defs>
  <g id="Component_537_1" data-name="Component 537 – 1" transform="translate(12 12)">
    <g id="Component_13" data-name="Component 13" transform="translate(0 0.108)">
      <g transform="matrix(1, 0, 0, 1, -12, -12.11)" filter="url(#Rectangle_66)">
        <rect id="Rectangle_66-2" data-name="Rectangle 66" width="105" height="58" rx="29" transform="translate(12 12)" fill="#fff"/>
      </g>
    </g>
    <g id="Layer_2" data-name="Layer 2" transform="translate(28.694 -6.878)">
      <g id="Layer_1" data-name="Layer 1" transform="translate(8.189 17.472)">
        <path id="Path_454" data-name="Path 454" d="M31.119,23.457c0,7.165-6.969,12.974-15.56,12.974S0,30.621,0,23.457C0,15.808,10.23,4.275,14.1.191a.7.7,0,0,1,.739-.2.576.576,0,0,1,.435.563c-.331,3.417-.1,10.73,6.859,14.375a.708.708,0,0,0,.888-.137,6.9,6.9,0,0,0,1.459-3.81.6.6,0,0,1,.513-.527.68.68,0,0,1,.712.3C28.669,15.033,31.119,19.709,31.119,23.457Z" transform="translate(0 0.045)" fill="#fff"/>
        <path id="Path_455" data-name="Path 455" d="M9,42.111C9,47.577,12.815,52,17.515,52s8.515-4.424,8.515-9.89S21.1,28.561,18.741,25.019a.515.515,0,0,0-.652-.261.708.708,0,0,0-.381.7c.085,2.778-.312,7.48-3.6,10.036a.484.484,0,0,1-.439.1.589.589,0,0,1-.361-.32,6.451,6.451,0,0,1-.568-1.945.653.653,0,0,0-.47-.612.551.551,0,0,0-.608.39C10.164,36.18,9,39.451,9,42.111Z" transform="translate(-1.709 -15.525)" fill="#fff"/>
        <path id="Path_456" data-name="Path 456" d="M26.514,51.912a5.438,5.438,0,0,1-1.625,3.782,5.138,5.138,0,0,1-3.757,1.472,5.138,5.138,0,0,1-3.757-1.472,5.438,5.438,0,0,1-1.625-3.782c0-2.6,2.479-6.286,4.077-8.393a.643.643,0,0,1,.718-.261.668.668,0,0,1,.469.617,5.66,5.66,0,0,0,1.957,4.28.639.639,0,0,0,.589.141.659.659,0,0,0,.449-.416h0a.656.656,0,0,1,.565-.466.649.649,0,0,1,.635.358,9.627,9.627,0,0,1,1.3,4.139Z" transform="translate(-5.336 -20.688)" fill="#fff"/>
      </g>
    </g>
    <g id="Layer_2-2" data-name="Layer 2" transform="translate(28.694 -6.878)">
      <g id="Layer_1-2" data-name="Layer 1" transform="translate(8.189 17.472)">
        <path id="Path_454-2" data-name="Path 454" d="M31.119,23.441c0,7.16-6.969,12.965-15.56,12.965S0,30.6,0,23.441C0,15.8,10.23,4.272,14.1.191a.7.7,0,0,1,.739-.2.576.576,0,0,1,.435.563c-.331,3.415-.1,10.723,6.859,14.365a.708.708,0,0,0,.888-.137,6.892,6.892,0,0,0,1.459-3.808.6.6,0,0,1,.513-.527.68.68,0,0,1,.712.3C28.669,15.023,31.119,19.7,31.119,23.441Z" transform="translate(0 0.045)" fill="#ff7f00"/>
        <path id="Path_455-2" data-name="Path 455" d="M9,38.724a8.253,8.253,0,0,0,8.515,7.964,8.253,8.253,0,0,0,8.515-7.964c0-4.4-4.933-10.912-7.289-13.764a.572.572,0,0,0-.652-.21.559.559,0,0,0-.381.562c.085,2.237-.312,6.023-3.6,8.082a.575.575,0,0,1-.439.079.567.567,0,0,1-.361-.258,4.465,4.465,0,0,1-.568-1.566.563.563,0,0,0-.47-.493.57.57,0,0,0-.608.314C10.164,33.948,9,36.582,9,38.724Z" transform="translate(-1.709 -10.237)" fill="#ffda00"/>
        <path id="Path_456-2" data-name="Path 456" d="M26.514,50.075a3.918,3.918,0,0,1-1.625,2.982,5.953,5.953,0,0,1-3.757,1.16,5.953,5.953,0,0,1-3.757-1.16,3.918,3.918,0,0,1-1.625-2.982c0-2.047,2.479-4.956,4.077-6.617a.738.738,0,0,1,.718-.206.564.564,0,0,1,.469.486,4.141,4.141,0,0,0,1.957,3.375.769.769,0,0,0,.589.111.622.622,0,0,0,.449-.328h0a.64.64,0,0,1,.565-.367.7.7,0,0,1,.635.282,6.52,6.52,0,0,1,1.3,3.264Z" transform="translate(-5.336 -17.764)" fill="#fff"/>
      </g>
    </g>
  </g>
</svg>
