<svg id="Layer_2" data-name="Layer 2" xmlns="http://www.w3.org/2000/svg" width="31.119" height="36.455" viewBox="0 0 31.119 36.455">
  <g id="Layer_1" data-name="Layer 1">
    <path id="Path_454" data-name="Path 454" d="M31.119,23.441c0,7.16-6.969,12.965-15.56,12.965S0,30.6,0,23.441C0,15.8,10.23,4.272,14.1.191a.7.7,0,0,1,.739-.2.576.576,0,0,1,.435.563c-.331,3.415-.1,10.723,6.859,14.365a.708.708,0,0,0,.888-.137,6.892,6.892,0,0,0,1.459-3.808.6.6,0,0,1,.513-.527.68.68,0,0,1,.712.3C28.669,15.023,31.119,19.7,31.119,23.441Z" transform="translate(0 0.045)" fill="#ff7f00"/>
    <path id="Path_455" data-name="Path 455" d="M9,38.724a8.253,8.253,0,0,0,8.515,7.964,8.253,8.253,0,0,0,8.515-7.964c0-4.4-4.933-10.912-7.289-13.764a.572.572,0,0,0-.652-.21.559.559,0,0,0-.381.562c.085,2.237-.312,6.023-3.6,8.082a.575.575,0,0,1-.439.079.567.567,0,0,1-.361-.258,4.465,4.465,0,0,1-.568-1.566.563.563,0,0,0-.47-.493.57.57,0,0,0-.608.314C10.164,33.948,9,36.582,9,38.724Z" transform="translate(-1.709 -10.237)" fill="#ffda00"/>
    <path id="Path_456" data-name="Path 456" d="M26.514,50.075a3.918,3.918,0,0,1-1.625,2.982,5.953,5.953,0,0,1-3.757,1.16,5.953,5.953,0,0,1-3.757-1.16,3.918,3.918,0,0,1-1.625-2.982c0-2.047,2.479-4.956,4.077-6.617a.738.738,0,0,1,.718-.206.564.564,0,0,1,.469.486,4.141,4.141,0,0,0,1.957,3.375.769.769,0,0,0,.589.111.622.622,0,0,0,.449-.328h0a.64.64,0,0,1,.565-.367.7.7,0,0,1,.635.282,6.52,6.52,0,0,1,1.3,3.264Z" transform="translate(-5.336 -17.764)" fill="#fff"/>
  </g>
</svg>
