<svg xmlns="http://www.w3.org/2000/svg" xmlns:xlink="http://www.w3.org/1999/xlink" width="129" height="82" viewBox="0 0 129 82">
  <defs>
    <filter id="Rectangle_66" x="0" y="0" width="129" height="82" filterUnits="userSpaceOnUse">
      <feOffset input="SourceAlpha"/>
      <feGaussianBlur stdDeviation="4" result="blur"/>
      <feFlood flood-opacity="0.302"/>
      <feComposite operator="in" in2="blur"/>
      <feComposite in="SourceGraphic"/>
    </filter>
    <linearGradient id="linear-gradient" x1="0.5" x2="0.5" y2="1" gradientUnits="objectBoundingBox">
      <stop offset="0" stop-color="#00dbff"/>
      <stop offset="1" stop-color="#10a5f5"/>
    </linearGradient>
  </defs>
  <g id="Component_538_1" data-name="Component 538 – 1" transform="translate(12 12)">
    <g id="Component_13" data-name="Component 13" transform="translate(0 0.108)">
      <g transform="matrix(1, 0, 0, 1, -12, -12.11)" filter="url(#Rectangle_66)">
        <rect id="Rectangle_66-2" data-name="Rectangle 66" width="105" height="58" rx="29" transform="translate(12 12)" fill="#fff"/>
      </g>
    </g>
    <g id="Layer_2" data-name="Layer 2" transform="translate(28.694 -6.878)">
      <g id="Layer_1" data-name="Layer 1" transform="translate(8.189 17.472)">
        <path id="Path_454" data-name="Path 454" d="M31.119,23.457c0,7.165-6.969,12.974-15.56,12.974S0,30.621,0,23.457C0,15.808,10.23,4.275,14.1.191a.7.7,0,0,1,.739-.2.576.576,0,0,1,.435.563c-.331,3.417-.1,10.73,6.859,14.375a.708.708,0,0,0,.888-.137,6.9,6.9,0,0,0,1.459-3.81.6.6,0,0,1,.513-.527.68.68,0,0,1,.712.3C28.669,15.033,31.119,19.709,31.119,23.457Z" transform="translate(0 0.045)" fill="url(#linear-gradient)"/>
        <path id="Path_455" data-name="Path 455" d="M9,39.474a8.516,8.516,0,0,0,17.029,0c0-4.637-4.933-11.5-7.289-14.5a.556.556,0,0,0-.652-.221.59.59,0,0,0-.381.592c.085,2.357-.312,6.346-3.6,8.514a.55.55,0,0,1-.439.083.569.569,0,0,1-.361-.272,4.867,4.867,0,0,1-.568-1.65.581.581,0,0,0-.47-.52.563.563,0,0,0-.608.331C10.164,34.442,9,37.218,9,39.474Z" transform="translate(-1.709 -11.39)" fill="url(#linear-gradient)"/>
        <path id="Path_456" data-name="Path 456" d="M26.514,51.912a5.438,5.438,0,0,1-1.625,3.782,5.138,5.138,0,0,1-3.757,1.472,5.138,5.138,0,0,1-3.757-1.472,5.438,5.438,0,0,1-1.625-3.782c0-2.6,2.479-6.286,4.077-8.393a.643.643,0,0,1,.718-.261.668.668,0,0,1,.469.617,5.66,5.66,0,0,0,1.957,4.28.639.639,0,0,0,.589.141.659.659,0,0,0,.449-.416h0a.656.656,0,0,1,.565-.466.649.649,0,0,1,.635.358,9.627,9.627,0,0,1,1.3,4.139Z" transform="translate(-5.336 -20.688)" fill="url(#linear-gradient)"/>
      </g>
    </g>
  </g>
</svg>
