<svg xmlns="http://www.w3.org/2000/svg" xmlns:xlink="http://www.w3.org/1999/xlink" width="129" height="82" viewBox="0 0 129 82">
  <defs>
    <filter id="Rectangle_66" x="0" y="0" width="129" height="82" filterUnits="userSpaceOnUse">
      <feOffset input="SourceAlpha"/>
      <feGaussianBlur stdDeviation="4" result="blur"/>
      <feFlood flood-opacity="0.302"/>
      <feComposite operator="in" in2="blur"/>
      <feComposite in="SourceGraphic"/>
    </filter>
    <linearGradient id="linear-gradient" x1="0.5" x2="0.5" y2="1" gradientUnits="objectBoundingBox">
      <stop offset="0" stop-color="#10a5f5"/>
      <stop offset="1" stop-color="#00dbff"/>
    </linearGradient>
  </defs>
  <g id="Component_519_2" data-name="Component 519 – 2" transform="translate(12 12)">
    <g id="Component_13" data-name="Component 13">
      <g transform="matrix(1, 0, 0, 1, -12, -12)" filter="url(#Rectangle_66)">
        <rect id="Rectangle_66-2" data-name="Rectangle 66" width="105" height="58" rx="29" transform="translate(12 12)" fill="#fff"/>
      </g>
    </g>
    <g id="图层_3" transform="translate(30.451 0.564)">
      <path id="Path_433" data-name="Path 433" d="M33.5,12.915c-6.118-2.078-11.1,3.964-11.1,3.964S17.624,11.112,11.4,12.9c-9.748,2.805-8.875,14.011-4.077,19.77,4.592,5.51,14.142,11.1,15.067,11.664v.034a.012.012,0,0,0,0,.009.082.082,0,0,1,.018-.017c.012.009-.006.017-.006.017s-.015,0-.015-.009v-.034c.925-.561,10.445-6.586,15.034-12.1C42.226,26.477,42.979,16.135,33.5,12.915Z" fill="url(#linear-gradient)"/>
      <g id="Group_282" data-name="Group 282" transform="translate(3.549 12.48)" opacity="0.2">
        <path id="Path_434" data-name="Path 434" d="M30.658,13.625a6.742,6.742,0,0,1,2.181.366,9.009,9.009,0,0,1,6.091,5.848c1.128,3.635.006,8.338-2.791,11.7a51.2,51.2,0,0,1-8.71,7.705c-2.369,1.74-4.418,3.077-5.422,3.718-3.352-2.049-10.333-6.6-13.987-10.989C5.154,28.532,4.067,23.446,5.373,19.6A8.69,8.69,0,0,1,11.556,14a7.422,7.422,0,0,1,2.055-.292c4.307,0,7.554,3.858,7.585,3.9a1.294,1.294,0,0,0,.977.464h0a1.294,1.294,0,0,0,.977-.469c.034-.04,3.33-3.973,7.508-3.973m0-1.145c-4.859,0-8.485,4.4-8.485,4.4s-3.571-4.322-8.562-4.322a8.691,8.691,0,0,0-2.419.343c-9.739,2.805-9.021,14.011-4.227,19.77,4.587,5.51,13.975,11.1,14.9,11.664v0c.924-.561,10.589-6.586,15.174-12.1,4.794-5.762,5.66-16.1-3.811-19.324a7.87,7.87,0,0,0-2.569-.435Zm-8.5,31.884a.148.148,0,0,1-.043.014c.025-.006.052-.009.043-.014Zm-.136.006a.3.3,0,0,0,.071.009h0a.23.23,0,0,1-.074-.009Zm.1.006a.116.116,0,0,0-.018,0H22.1l.012,0Z" transform="translate(-3.549 -12.48)" fill="none"/>
      </g>
    </g>
  </g>
</svg>
