<svg width="35" height="35" viewBox="0 0 35 35" fill="none" xmlns="http://www.w3.org/2000/svg">
<g clip-path="url(#clip0)">
<path d="M29.151 0.891602H5.89247C2.93101 0.891602 0.521729 3.49732 0.521729 6.70016V21.385C0.521729 24.5879 2.93101 27.1936 5.89247 27.1936H12.8795L16.6397 34.3584C16.8118 34.6863 17.1515 34.8916 17.5217 34.8916C17.8919 34.8916 18.2316 34.6863 18.4037 34.3584L22.164 27.1936H29.151C32.1124 27.1936 34.5217 24.5879 34.5217 21.385V6.70016C34.5217 3.49732 32.1124 0.891602 29.151 0.891602V0.891602ZM32.5295 21.385C32.5295 23.4894 31.014 25.2014 29.151 25.2014H21.5619C21.1917 25.2014 20.852 25.4067 20.6799 25.7346L17.5217 31.752L14.3636 25.7346C14.1915 25.4067 13.8518 25.2014 13.4816 25.2014H5.89247C4.02951 25.2014 2.51392 23.4894 2.51392 21.385V6.70016C2.51392 4.59581 4.02951 2.88379 5.89247 2.88379H29.151C31.014 2.88379 32.5295 4.59581 32.5295 6.70016V21.385Z" fill="#00DAFF"/>
<path d="M16.4251 12.0583C16.9826 11.3959 17.3195 10.5419 17.3195 9.61032C17.3195 7.51095 15.6114 5.80298 13.5119 5.80298C11.4125 5.80298 9.70436 7.51095 9.70436 9.61032C9.70436 10.5419 10.0412 11.3959 10.5987 12.0583C8.38693 13.0744 6.84717 15.3105 6.84717 17.8997V17.9387C6.84717 18.9274 7.65148 19.7317 8.64014 19.7317H18.3836C19.3723 19.7317 20.1766 18.9274 20.1766 17.9387V17.8997C20.1766 15.3105 18.6369 13.0744 16.4251 12.0583ZM13.5119 7.79517C14.5129 7.79517 15.3273 8.60944 15.3273 9.61032C15.3273 10.6112 14.5129 11.4254 13.5119 11.4254C12.511 11.4254 11.6966 10.6111 11.6966 9.61032C11.6966 8.60951 12.511 7.79517 13.5119 7.79517ZM8.84228 17.7395C8.92675 15.3693 10.8814 13.4672 13.2719 13.4672H13.752C16.1424 13.4672 18.0971 15.3693 18.1816 17.7395H8.84228Z" fill="#00DAFF"/>
<path d="M26.1372 8.99524C25.9912 8.99524 25.8586 9.0218 25.7524 9.08808L24.0012 10.1493C23.7359 10.3085 23.6165 10.5738 23.6165 10.8524C23.6165 11.2637 23.8817 11.6749 24.2665 11.6749C24.3593 11.6749 24.4787 11.6484 24.5982 11.5688L24.9829 11.33V18.0823C24.9829 18.5069 25.5003 18.7191 26.0177 18.7191C26.5351 18.7191 27.0526 18.5069 27.0526 18.0823V9.64522C27.0526 9.24732 26.5617 8.99524 26.1372 8.99524Z" fill="#00DAFF"/>
</g>
<defs>
<clipPath id="clip0">
<rect width="34" height="34" fill="white" transform="translate(0.521729 0.891602)"/>
</clipPath>
</defs>
</svg>
