<svg width="27" height="27" viewBox="0 0 27 27" fill="none" xmlns="http://www.w3.org/2000/svg">
<path d="M23.045 3.95508C20.498 1.40273 17.1071 0 13.5001 0C10.9056 0 8.38488 0.738281 6.21223 2.13574C4.09758 3.49629 2.4048 5.40527 1.31848 7.66758C1.00207 8.32148 1.28156 9.1125 1.93547 9.42891C2.58937 9.74531 3.38039 9.46582 3.6968 8.81191C4.57219 6.99258 5.93273 5.45273 7.63605 4.35586C9.38683 3.23262 11.4118 2.63672 13.5001 2.63672C19.4907 2.63672 24.3634 7.50938 24.3634 13.5C24.3634 19.4906 19.4907 24.3633 13.5001 24.3633C11.4118 24.3633 9.38683 23.7674 7.63605 22.6494C5.93273 21.5578 4.57219 20.0127 3.6968 18.1934C3.38039 17.5395 2.59465 17.26 1.93547 17.5764C1.28156 17.8928 1.00207 18.6785 1.31848 19.3377C2.4048 21.6 4.0923 23.5143 6.21223 24.8695C8.38488 26.2617 10.9056 27 13.5001 27C17.1071 27 20.498 25.5973 23.045 23.0449C25.5974 20.4926 27.0001 17.107 27.0001 13.5C27.0001 9.89297 25.5974 6.50215 23.045 3.95508Z" fill="white"/>
<path d="M7.35132 13.5C7.35132 14.2278 7.94194 14.8184 8.66968 14.8184H16.1685L14.2226 16.7643C13.7058 17.2811 13.7058 18.1143 14.2226 18.6311C14.481 18.8895 14.8185 19.0161 15.156 19.0161C15.4935 19.0161 15.831 18.8895 16.0894 18.6311L19.4064 15.3141C19.8915 14.829 20.1552 14.1856 20.1552 13.5053C20.1552 12.825 19.8863 12.1764 19.4064 11.6965L16.0894 8.37954C15.5726 7.86274 14.7394 7.86274 14.2226 8.37954C13.7058 8.89634 13.7058 9.72954 14.2226 10.2463L16.1685 12.1922H8.66968C7.94194 12.1817 7.35132 12.7723 7.35132 13.5Z" fill="white"/>
</svg>
