<svg width="22" height="22" viewBox="0 0 22 22" fill="none" xmlns="http://www.w3.org/2000/svg">
<path d="M15.7945 11.0391C15.3717 10.8381 14.9404 10.665 14.5014 10.52C15.923 9.45295 16.8442 7.75393 16.8442 5.84375C16.8442 2.62152 14.2227 0 11.0005 0C7.7782 0 5.15672 2.62152 5.15672 5.84375C5.15672 7.75603 6.08003 9.45673 7.50423 10.5235C6.19935 10.9531 4.97496 11.6216 3.90332 12.503C1.93828 14.1194 0.571999 16.3739 0.0562451 18.8514C-0.105403 19.6277 0.0882568 20.425 0.587467 21.0388C1.08423 21.6497 1.82084 22 2.60837 22H13.1919C13.6665 22 14.0512 21.6153 14.0512 21.1406C14.0512 20.666 13.6665 20.2812 13.1919 20.2812H2.60837C2.24151 20.2812 2.02017 20.0765 1.92092 19.9544C1.74951 19.7437 1.68317 19.4693 1.7389 19.2017C2.63072 14.9179 6.40921 11.7886 10.7726 11.6831C10.8482 11.686 10.9242 11.6875 11.0005 11.6875C11.0775 11.6875 11.1542 11.686 11.2305 11.683C12.5677 11.7144 13.8538 12.0196 15.0566 12.5914C15.4853 12.7951 15.9979 12.6128 16.2017 12.1841C16.4055 11.7555 16.2232 11.2428 15.7945 11.0391ZM11.2101 9.96346C11.1403 9.96222 11.0705 9.96157 11.0005 9.96157C10.9311 9.96157 10.8618 9.96226 10.7925 9.96355C8.6142 9.85488 6.87547 8.04856 6.87547 5.84375C6.87547 3.5692 8.72591 1.71875 11.0005 1.71875C13.275 1.71875 15.1255 3.5692 15.1255 5.84375C15.1255 8.048 13.3876 9.85398 11.2101 9.96346Z" fill="white"/>
<path d="M21.1406 17.0586H18.7773V14.6953C18.7773 14.2207 18.3926 13.8359 17.918 13.8359C17.4433 13.8359 17.0586 14.2207 17.0586 14.6953V17.0586H14.6953C14.2207 17.0586 13.8359 17.4433 13.8359 17.918C13.8359 18.3926 14.2207 18.7773 14.6953 18.7773H17.0586V21.1406C17.0586 21.6153 17.4433 22 17.918 22C18.3926 22 18.7773 21.6153 18.7773 21.1406V18.7773H21.1406C21.6153 18.7773 22 18.3926 22 17.918C22 17.4433 21.6153 17.0586 21.1406 17.0586Z" fill="white"/>
</svg>
