<svg width="34" height="34" viewBox="0 0 34 34" fill="none" xmlns="http://www.w3.org/2000/svg">
<g clip-path="url(#clip0)">
<path d="M5.92548 29.5191C5.78385 29.5191 5.64085 29.4902 5.50335 29.4284C4.1476 28.8192 3.27173 27.4676 3.27173 25.9854V10.1729C3.27173 8.08835 4.9671 6.3916 7.05298 6.3916H26.6467C27.216 6.3916 27.678 6.8536 27.678 7.42285C27.678 7.9921 27.216 8.4541 26.6467 8.4541H7.05298C6.1056 8.4541 5.33423 9.22548 5.33423 10.1729V25.9854C5.33423 26.6577 5.73298 27.271 6.34898 27.5474C6.86735 27.7811 7.09973 28.3916 6.86598 28.9114C6.6941 29.2922 6.31873 29.5191 5.92548 29.5191Z" fill="#00DAFF"/>
<path d="M26.9904 29.7667H12.0029C11.4337 29.7667 10.9717 29.3047 10.9717 28.7354C10.9717 28.1662 11.4337 27.7042 12.0029 27.7042H26.9904C27.9378 27.7042 28.7092 26.9328 28.7092 25.9854V10.9979C28.7092 10.4287 29.1712 9.96667 29.7404 9.96667C30.3097 9.96667 30.7717 10.4287 30.7717 10.9979V25.9854C30.7717 28.0699 29.0749 29.7667 26.9904 29.7667Z" fill="#00DAFF"/>
<path d="M29.7404 13.2666H28.5029C27.9337 13.2666 27.4717 12.8046 27.4717 12.2354C27.4717 11.6661 27.9337 11.2041 28.5029 11.2041H29.7404C30.3097 11.2041 30.7717 11.6661 30.7717 12.2354C30.7717 12.8046 30.3097 13.2666 29.7404 13.2666Z" fill="#00DAFF"/>
<path d="M21.8342 13.2666H4.30298C3.73373 13.2666 3.27173 12.8046 3.27173 12.2354C3.27173 11.6661 3.73373 11.2041 4.30298 11.2041H21.8342C22.4035 11.2041 22.8655 11.6661 22.8655 12.2354C22.8655 12.8046 22.4035 13.2666 21.8342 13.2666Z" fill="#00DAFF"/>
<path d="M1.55288 33.8917C1.28888 33.8917 1.02488 33.7913 0.824129 33.5892C0.421254 33.1863 0.421254 32.5332 0.824129 32.1303L31.7616 1.19278C32.1645 0.789906 32.8176 0.789906 33.2205 1.19278C33.6234 1.59566 33.6234 2.24878 33.2205 2.65166L2.283 33.5892C2.08088 33.7913 1.81688 33.8917 1.55288 33.8917Z" fill="#00DAFF"/>
</g>
<defs>
<clipPath id="clip0">
<rect width="33" height="33" fill="white" transform="translate(0.521729 0.891602)"/>
</clipPath>
</defs>
</svg>
