<svg width="37" height="36" viewBox="0 0 37 36" fill="none" xmlns="http://www.w3.org/2000/svg">
<path d="M8.5793 35.1638C8.18488 35.1638 7.7932 35.0407 7.45894 34.799C6.83627 34.3478 6.5454 33.5721 6.71487 32.8236L9.03084 22.6217L1.17652 15.7337C0.599169 15.2297 0.378613 14.4315 0.615649 13.7012C0.852685 12.9722 1.4976 12.4561 2.26117 12.3855L12.6534 11.442L16.7621 1.82684C17.0651 1.1204 17.755 0.664185 18.5216 0.664185C19.2882 0.664185 19.9782 1.1204 20.2811 1.82519L24.3899 11.442L34.7804 12.3855C35.5457 12.4545 36.1906 12.9722 36.4276 13.7012C36.6646 14.4301 36.4455 15.2297 35.8681 15.7337L28.0138 22.6204L30.3298 32.822C30.4995 33.5721 30.2084 34.3478 29.586 34.7977C28.965 35.2476 28.1368 35.2822 27.4829 34.8891L18.5216 29.534L9.5604 34.8921C9.25744 35.072 8.91988 35.1638 8.5793 35.1638ZM18.5216 27.2271C18.8622 27.2271 19.1995 27.3185 19.5027 27.4984L27.96 32.5567L25.7742 22.9277C25.6182 22.2424 25.8508 21.5269 26.3804 21.0633L33.7966 14.5592L23.9847 13.6682C23.2783 13.6037 22.6707 13.1595 22.3947 12.5086L18.5216 3.43473L14.6439 12.5099C14.3709 13.1565 13.7633 13.6006 13.0585 13.6652L3.24529 14.5562L10.6613 21.0603C11.1925 21.5253 11.4248 22.2394 11.2674 22.9264L9.08331 32.555L17.5405 27.4984C17.8435 27.3185 18.181 27.2271 18.5216 27.2271ZM12.574 11.628C12.574 11.628 12.574 11.6296 12.5724 11.631L12.574 11.628ZM24.4662 11.6236L24.4679 11.6266C24.4679 11.625 24.4679 11.625 24.4662 11.6236Z" fill="#00DAFF"/>
</svg>
