<svg width="131" height="131" viewBox="0 0 131 131" fill="none" xmlns="http://www.w3.org/2000/svg">
<g clip-path="url(#clip0)">
<path d="M86.9609 115.56C85.9012 115.56 85.042 116.419 85.042 117.479V129.081C85.042 130.141 85.9012 131 86.9609 131C88.0207 131 88.8799 130.141 88.8799 129.081V117.479C88.8799 116.419 88.0207 115.56 86.9609 115.56Z" fill="url(#paint0_linear)"/>
<path d="M109.082 69.3592C107.895 68.0845 106.387 67.2314 104.727 66.8763C107.915 63.6071 107.89 58.354 104.652 55.116C103.305 53.7687 101.58 52.9371 99.716 52.7206C100.946 49.7429 100.452 46.1954 98.1885 43.7652C96.8276 42.3034 95.0434 41.3961 93.0938 41.1582C93.5231 40.1411 93.7485 39.0386 93.7485 37.9013C93.7485 35.6656 92.8781 33.5636 91.2971 31.9827C89.7166 30.4025 87.6183 29.5325 85.3897 29.5325C84.6561 29.5287 83.9382 29.6223 83.2476 29.803L54.6902 1.2458C53.0294 -0.415269 50.327 -0.415013 48.6661 1.24554L42.6459 7.26575C41.8965 8.01543 41.8965 9.23027 42.6459 9.97969C43.3954 10.7289 44.6105 10.7289 45.3596 9.97969L51.3796 3.95948C51.5444 3.79471 51.8117 3.79471 51.9763 3.95948L79.7382 31.7212C79.6448 31.8066 79.5524 31.8939 79.4621 31.9842L77.4802 33.9661L53.0348 9.52067C52.2853 8.7715 51.0702 8.7715 50.3211 9.52067L29.2569 30.5849C28.8969 30.9449 28.6947 31.4328 28.6947 31.942C28.6947 32.4511 28.8969 32.9388 29.2569 33.2991L39.3491 43.3911C39.7237 43.7657 40.215 43.953 40.706 43.953C41.197 43.953 41.6882 43.7657 42.0628 43.3911C42.8123 42.6414 42.8123 41.4266 42.0628 40.6772L33.3274 31.942L51.6779 13.5915L74.7663 36.6798L71.3523 40.0938C71.123 37.6521 70.0622 35.3867 68.3062 33.6307V33.6309C66.311 31.6355 63.6582 30.5365 60.8365 30.5365C58.0149 30.5365 55.3621 31.6355 53.3669 33.6307C51.3716 35.6259 50.2727 38.2787 50.2727 41.1004C50.2727 43.922 51.3714 46.5748 53.3669 48.57C55.1717 50.3749 57.4722 51.3886 59.8341 51.6117L56.416 55.0298L48.5628 47.1766C47.8134 46.4274 46.5983 46.4274 45.8491 47.1766C45.0997 47.9263 45.0997 49.1411 45.8491 49.8905L53.7023 57.7435L51.4512 59.9946L23.6954 32.2406C23.5933 32.1385 23.5718 32.0221 23.5718 31.9422C23.5718 31.8624 23.5933 31.746 23.6954 31.6442L38.8597 16.4796C39.6091 15.73 39.6091 14.5151 38.8597 13.7657C38.1103 13.0165 36.8952 13.0165 36.146 13.7657L20.9817 28.9302C20.177 29.7349 19.7339 30.8044 19.7339 31.9422C19.7339 33.0798 20.177 34.1496 20.9815 34.9543L36.6871 50.6599V63.1942C36.6871 66.4116 37.4056 69.6568 38.7647 72.5787L52.0233 101.075L51.3814 129.037C51.3571 130.097 52.1963 130.975 53.2558 130.999C53.2709 131 53.2858 131 53.3009 131C54.3402 131 55.1945 130.17 55.2186 129.125L55.8708 100.716C55.8774 100.422 55.8165 100.129 55.6922 99.8622L42.2447 70.9599C41.12 68.5417 40.5253 65.8567 40.5253 63.1942V54.4968L48.7368 62.7085L45.5922 65.8531C44.8428 66.6025 44.8428 67.8176 45.5922 68.5668C45.967 68.9416 46.458 69.1289 46.9493 69.1289C47.4403 69.1289 47.9316 68.9416 48.3061 68.567L82.1763 34.6981C83.0324 33.8418 84.1705 33.3705 85.3828 33.3705H85.3879C86.5933 33.3705 87.7283 33.8415 88.5836 34.6966C89.4395 35.5527 89.9108 36.6908 89.9108 37.9013C89.9108 39.1118 89.4395 40.2499 88.5836 41.1055L79.1308 50.5583C78.3814 51.308 78.3814 52.5229 79.1308 53.2723C79.5054 53.6469 79.9966 53.8342 80.4876 53.8342C80.9786 53.8342 81.4699 53.6469 81.8445 53.2723C81.8445 53.2723 88.7812 46.3353 88.8561 46.2606C89.734 45.3827 90.9084 44.915 92.1425 44.9337C93.3824 44.956 94.532 45.4695 95.3801 46.3804C97.0213 48.142 96.9199 51.0117 95.1542 52.7769L85.1213 62.8114C84.3719 63.5611 84.3719 64.7759 85.1213 65.5253C85.4959 65.8999 85.9872 66.0872 86.4781 66.0872C86.9692 66.0872 87.4604 65.8999 87.835 65.5253C87.835 65.5253 95.4661 57.8927 95.5293 57.8295V57.8292C96.3854 56.9728 97.5235 56.5015 98.7335 56.5015C99.9437 56.5015 101.082 56.9731 101.938 57.8292C103.705 59.5962 103.705 62.4716 101.938 64.2383L91.9774 74.1986C91.228 74.9483 91.228 76.1631 91.9774 76.9125C92.352 77.2871 92.8433 77.4744 93.3343 77.4744C93.8253 77.4744 94.3165 77.2871 94.6911 76.9125C94.6911 76.9125 99.6579 71.946 99.7493 71.8546C100.627 70.9768 101.795 70.509 103.036 70.5277C104.276 70.5497 105.425 71.0635 106.273 71.9739C107.914 73.7357 107.813 76.6055 106.048 78.3707L85.6041 98.8142C85.2441 99.1742 85.042 99.6621 85.042 100.171V108.286C85.042 109.346 85.9012 110.205 86.961 110.205C88.0207 110.205 88.8799 109.346 88.8799 108.286V100.966L108.762 81.0849C111.971 77.8756 112.115 72.6151 109.082 69.3592ZM56.0808 45.8563C54.8105 44.586 54.1109 42.8973 54.1109 41.1006C54.1109 39.3039 54.8105 37.6152 56.0811 36.3446C57.3512 35.0743 59.0401 34.3747 60.8368 34.3747C62.6335 34.3747 64.3224 35.0743 65.5925 36.3446V36.3449C66.8629 37.6152 67.5624 39.3039 67.5624 41.1006C67.5624 42.8735 66.88 44.5407 65.6414 45.8049L65.5432 45.9032C62.917 48.4777 58.687 48.4628 56.0808 45.8563Z" fill="url(#paint1_linear)"/>
</g>
<defs>
<linearGradient id="paint0_linear" x1="86.9609" y1="115.56" x2="86.9609" y2="131" gradientUnits="userSpaceOnUse">
<stop stop-color="#52B5EE"/>
<stop offset="1" stop-color="#00DAFF"/>
</linearGradient>
<linearGradient id="paint1_linear" x1="65.4999" y1="6.10352e-05" x2="65.4999" y2="131" gradientUnits="userSpaceOnUse">
<stop stop-color="#52B5EE"/>
<stop offset="1" stop-color="#00DAFF"/>
</linearGradient>
<clipPath id="clip0">
<rect width="131" height="131" fill="white"/>
</clipPath>
</defs>
</svg>
