<svg width="35" height="35" viewBox="0 0 35 35" fill="none" xmlns="http://www.w3.org/2000/svg">
<path d="M17.5217 0.891602C12.9809 0.891602 8.71174 2.65987 5.50087 5.87074C2.28999 9.08162 0.521729 13.3507 0.521729 17.8916C0.521729 22.4325 2.29006 26.7015 5.50087 29.9125C8.71168 33.1234 12.9809 34.8916 17.5217 34.8916C22.0626 34.8916 26.3317 33.1233 29.5426 29.9125C32.7535 26.7016 34.5217 22.4325 34.5217 17.8916C34.5217 13.3507 32.7534 9.08168 29.5426 5.87074C26.3318 2.6598 22.0626 0.891602 17.5217 0.891602ZM17.5217 32.7666C9.31963 32.7666 2.64673 26.0937 2.64673 17.8916C2.64673 9.6895 9.31963 3.0166 17.5217 3.0166C25.7238 3.0166 32.3967 9.6895 32.3967 17.8916C32.3967 26.0937 25.7238 32.7666 17.5217 32.7666Z" fill="#00DAFF"/>
<path d="M21.3908 17.8916C22.275 18.671 22.8342 19.8107 22.8342 21.0791C22.8342 22.8591 21.7338 24.386 20.178 25.0179V26.3916C20.178 26.9784 19.7023 27.4541 19.1155 27.4541C18.5286 27.4541 18.053 26.9784 18.053 26.3916V25.3291H15.928V26.3916C15.928 26.9784 15.4523 27.4541 14.8655 27.4541C14.2786 27.4541 13.803 26.9784 13.803 26.3916V25.3291H11.678C11.0911 25.3291 10.6155 24.8534 10.6155 24.2666C10.6155 23.6798 11.0911 23.2041 11.678 23.2041H12.7405V17.8916V12.5791H11.678C11.0911 12.5791 10.6155 12.1034 10.6155 11.5166C10.6155 10.9298 11.0911 10.4541 11.678 10.4541H13.803V9.3916C13.803 8.80484 14.2786 8.3291 14.8655 8.3291C15.4523 8.3291 15.928 8.80484 15.928 9.3916V10.4541H18.053V9.3916C18.053 8.80484 18.5286 8.3291 19.1155 8.3291C19.7023 8.3291 20.178 8.80484 20.178 9.3916V10.7653C21.7338 11.3972 22.8342 12.9241 22.8342 14.7041C22.8342 15.9725 22.275 17.1122 21.3908 17.8916ZM14.8655 23.2041H18.5842C19.756 23.2041 20.7092 22.2508 20.7092 21.0791C20.7092 19.9074 19.756 18.9541 18.5842 18.9541H14.8655V23.2041ZM18.5842 12.5791H14.8655V16.8291H18.5842C19.756 16.8291 20.7092 15.8758 20.7092 14.7041C20.7092 13.5324 19.756 12.5791 18.5842 12.5791Z" fill="#00DAFF"/>
</svg>
