<svg width="35" height="35" viewBox="0 0 35 35" fill="none" xmlns="http://www.w3.org/2000/svg">
<path d="M17.5217 34.8916C12.9809 34.8916 8.71174 33.1233 5.50087 29.9125C2.28999 26.7016 0.521729 22.4325 0.521729 17.8916C0.521729 13.3507 2.29006 9.08168 5.50087 5.87074C8.71168 2.6598 12.9809 0.891602 17.5217 0.891602C22.0626 0.891602 26.3317 2.65987 29.5426 5.87074C32.7535 9.08162 34.5217 13.3507 34.5217 17.8916C34.5217 22.4325 32.7534 26.7015 29.5426 29.9125C26.3318 33.1234 22.0626 34.8916 17.5217 34.8916ZM17.5217 3.0166C9.31963 3.0166 2.64673 9.6895 2.64673 17.8916C2.64673 26.0937 9.31963 32.7666 17.5217 32.7666C25.7238 32.7666 32.3967 26.0937 32.3967 17.8916C32.3967 9.6895 25.7238 3.0166 17.5217 3.0166Z" fill="#00DAFF"/>
<path d="M17.5217 16.8291C16.0571 16.8291 14.8655 15.6375 14.8655 14.1729C14.8655 12.7082 16.0571 11.5166 17.5217 11.5166C18.9864 11.5166 20.178 12.7082 20.178 14.1729C20.178 14.7596 20.6536 15.2354 21.2405 15.2354C21.8273 15.2354 22.303 14.7596 22.303 14.1729C22.303 11.9017 20.7107 9.9967 18.5842 9.51206V8.3291C18.5842 7.74234 18.1086 7.2666 17.5217 7.2666C16.9349 7.2666 16.4592 7.74234 16.4592 8.3291V9.51206C14.3328 9.9967 12.7405 11.9017 12.7405 14.1729C12.7405 16.8092 14.8853 18.9541 17.5217 18.9541C18.9864 18.9541 20.178 20.1457 20.178 21.6104C20.178 23.075 18.9864 24.2666 17.5217 24.2666C16.0571 24.2666 14.8655 23.075 14.8655 21.6104C14.8655 21.0236 14.3898 20.5479 13.803 20.5479C13.2161 20.5479 12.7405 21.0236 12.7405 21.6104C12.7405 23.8815 14.3328 25.7865 16.4592 26.2711V27.4541C16.4592 28.0409 16.9349 28.5166 17.5217 28.5166C18.1086 28.5166 18.5842 28.0409 18.5842 27.4541V26.2711C20.7107 25.7865 22.303 23.8815 22.303 21.6104C22.303 18.974 20.1581 16.8291 17.5217 16.8291Z" fill="#00DAFF"/>
</svg>
