<svg width="39" height="39" viewBox="0 0 39 39" fill="none" xmlns="http://www.w3.org/2000/svg">
<g clip-path="url(#clip0)">
<path d="M30.2092 38.8916H8.83423C6.87089 38.8916 5.27173 37.294 5.27173 35.3291V18.7041C5.27173 16.7392 6.87089 15.1416 8.83423 15.1416H30.2092C32.1726 15.1416 33.7717 16.7392 33.7717 18.7041V35.3291C33.7717 37.294 32.1726 38.8916 30.2092 38.8916ZM8.83423 17.5166C8.18031 17.5166 7.64673 18.0486 7.64673 18.7041V35.3291C7.64673 35.9846 8.18031 36.5166 8.83423 36.5166H30.2092C30.8631 36.5166 31.3967 35.9846 31.3967 35.3291V18.7041C31.3967 18.0486 30.8631 17.5166 30.2092 17.5166H8.83423Z" fill="#00DAFF"/>
<path d="M27.8342 17.5166C27.1787 17.5166 26.6467 16.9846 26.6467 16.3291V10.3916C26.6467 6.46335 23.45 3.2666 19.5217 3.2666C15.5935 3.2666 12.3967 6.46335 12.3967 10.3916V16.3291C12.3967 16.9846 11.8647 17.5166 11.2092 17.5166C10.5537 17.5166 10.0217 16.9846 10.0217 16.3291V10.3916C10.0217 5.15235 14.2825 0.891602 19.5217 0.891602C24.761 0.891602 29.0217 5.15235 29.0217 10.3916V16.3291C29.0217 16.9846 28.4897 17.5166 27.8342 17.5166Z" fill="#00DAFF"/>
<path d="M19.5216 27.8083C17.7752 27.8083 16.355 26.3881 16.355 24.6416C16.355 22.8952 17.7752 21.475 19.5216 21.475C21.2681 21.475 22.6883 22.8952 22.6883 24.6416C22.6883 26.3881 21.2681 27.8083 19.5216 27.8083ZM19.5216 23.85C19.0862 23.85 18.73 24.2046 18.73 24.6416C18.73 25.0786 19.0862 25.4333 19.5216 25.4333C19.9571 25.4333 20.3133 25.0786 20.3133 24.6416C20.3133 24.2046 19.9571 23.85 19.5216 23.85Z" fill="#00DAFF"/>
<path d="M19.5217 32.5583C18.8662 32.5583 18.3342 32.0263 18.3342 31.3708V27.0166C18.3342 26.3611 18.8662 25.8291 19.5217 25.8291C20.1772 25.8291 20.7092 26.3611 20.7092 27.0166V31.3708C20.7092 32.0263 20.1772 32.5583 19.5217 32.5583Z" fill="#00DAFF"/>
</g>
<defs>
<clipPath id="clip0">
<rect width="38" height="38" fill="white" transform="translate(0.521729 0.891602)"/>
</clipPath>
</defs>
</svg>
