<svg width="25" height="25" viewBox="0 0 25 25" fill="none" xmlns="http://www.w3.org/2000/svg">
<g clip-path="url(#clip0)">
<path d="M18.751 0.0805664H6.25131C2.8142 0.0805664 0.00146484 2.78079 0.00146484 6.08042V18.0807C0.00146484 21.3795 2.8142 24.0806 6.25131 24.0806H18.751C22.1881 24.0806 25.0009 21.3795 25.0009 18.0807V6.08042C25.0009 2.78079 22.1881 0.0805664 18.751 0.0805664ZM22.9175 18.0807C22.9175 20.2857 21.0491 22.0805 18.751 22.0805H6.25131C3.95419 22.0805 2.08485 20.2857 2.08485 18.0807V6.08042C2.08485 3.87489 3.95419 2.08062 6.25131 2.08062H18.751C21.0491 2.08062 22.9175 3.87489 22.9175 6.08042V18.0807Z" fill="white"/>
<path d="M19.2717 7.08025C20.1346 7.08025 20.8341 6.40869 20.8341 5.58029C20.8341 4.75188 20.1346 4.08032 19.2717 4.08032C18.4088 4.08032 17.7092 4.75188 17.7092 5.58029C17.7092 6.40869 18.4088 7.08025 19.2717 7.08025Z" fill="white"/>
<path d="M12.5001 6.08057C9.04766 6.08057 6.25024 8.76638 6.25024 12.0804C6.25024 15.3932 9.04766 18.0809 12.5001 18.0809C15.9515 18.0809 18.7499 15.3932 18.7499 12.0804C18.7499 8.76638 15.9515 6.08057 12.5001 6.08057ZM12.5001 16.0808C10.1992 16.0808 8.33363 14.2899 8.33363 12.0804C8.33363 9.87096 10.1992 8.08062 12.5001 8.08062C14.801 8.08062 16.6666 9.87096 16.6666 12.0804C16.6666 14.2899 14.801 16.0808 12.5001 16.0808Z" fill="white"/>
</g>
<defs>
<clipPath id="clip0">
<rect width="25" height="24" fill="white" transform="translate(0 0.0805664)"/>
</clipPath>
</defs>
</svg>
