<svg xmlns="http://www.w3.org/2000/svg" xmlns:xlink="http://www.w3.org/1999/xlink" width="1025.2" height="378" viewBox="0 0 1025.2 378"><defs><style>.a{fill:url(#a);}</style><linearGradient id="a" x1="0.567" x2="0.537" y2="1" gradientUnits="objectBoundingBox"><stop offset="0" stop-color="#00dbff"/><stop offset="1" stop-color="#10a5f5"/></linearGradient></defs><path class="a" d="M751.2,431.8a9.243,9.243,0,0,1,8.2,4.8q3,4.8,3,13.2,0,15.6-7.6,24.8-19.2,23.2-38.8,35.8T669.6,523q-26,0-44.2-14t-34.6-48q-13.2-27.2-20.8-40.2t-15-18.6a36.136,36.136,0,0,0-18.2-6.8q-1.6,8.4-9.2,52.8-3.2,20-4,24.4-4,24.4-16,37.4t-36.4,13q-26.8,0-47.4-15.8t-31.8-44Q380.8,435,380.8,399q0-67.2,23.4-116t65.6-74.6q42.2-25.8,97.4-25.8,38.4,0,64.4,11.6t38.6,32q12.6,20.4,12.6,46A97.648,97.648,0,0,1,672.2,316q-10.6,21.4-31.8,37.8t-51.6,24.4q19.2,5.2,29.6,16.8t20.8,34q11.2,24,22.2,35.2t25.4,11.2q12.8,0,24.4-8.6t29.2-29.4Q745.2,431.8,751.2,431.8ZM481.6,395q-13.6,0-18.6-6.4a22.793,22.793,0,0,1-5-14.4q0-9.6,6.2-15.2a20.578,20.578,0,0,1,14.2-5.6h10q6.4-39.2,12-67.6,5.2-26,33.6-26,22.8,0,22.8,20.4a44.021,44.021,0,0,1-.4,6.8l-12,66.4A96.429,96.429,0,0,0,583.8,343a73.151,73.151,0,0,0,28.4-25.6q10.6-16.4,10.6-37.2,0-25.2-17.2-39.6t-50.4-14.4q-39.2,0-68.6,19.4t-45.8,57.6q-16.4,38.2-16.4,93,0,25.6,5.2,44t12.8,27.6q7.6,9.2,14.4,9.2,5.2,0,8.6-5.2t5.4-16.8Zm418.8,36.8a9.243,9.243,0,0,1,8.2,4.8q3,4.8,3,13.2,0,16-7.6,24.8-14.8,18-41.8,33.2A115.954,115.954,0,0,1,804.4,523q-42,0-65.2-22.8T716,437.8a115.747,115.747,0,0,1,11.6-51.4q11.6-23.8,32.2-37.8t46.6-14q23.2,0,37.2,13.8t14,37.4q0,27.6-19.8,47.4t-67,31.4q10,18.4,38,18.4,18,0,41-12.6a135.409,135.409,0,0,0,39.8-33Q894.4,431.8,900.4,431.8Zm-100.8-58q-14.8,0-25,17.2t-10.2,41.6v.8q23.6-5.6,37.2-16.8t13.6-26q0-7.6-4.2-12.2T799.6,373.8Zm231.2,58a9.243,9.243,0,0,1,8.2,4.8q3,4.8,3,13.2,0,16-7.6,24.8A172.334,172.334,0,0,1,997,509.4Q976.8,523,951.2,523,916,523,899,491t-17-82.8q0-48.8,12.6-111.2t37.2-107.2Q956.4,145,990.4,145q19.2,0,30.2,17.8t11,51q0,47.6-26.4,110.4T933.6,448.6q2.8,16.4,9.2,23.4t16.8,7a46.354,46.354,0,0,0,28.8-9.4q12.4-9.4,31.6-32.2Q1024.8,431.8,1030.8,431.8ZM981.6,184.6q-9.2,0-20.8,33.2t-20.4,82.4a596.485,596.485,0,0,0-9.6,94.4A515.494,515.494,0,0,0,976,300.8q16.8-47,16.8-85.8Q992.8,184.6,981.6,184.6ZM1062,308.2q-16.8,0-25.2-7.8t-8.4-21.8q0-14,11-23.4t27.4-9.4q14.8,0,24,7.2t9.2,20.4q0,16-10.4,25.4T1062,308.2ZM1058.8,523q-26,0-37.8-18.4t-11.8-48.8q0-18,4.6-46.2a431.373,431.373,0,0,1,11.8-52.6q3.6-12.8,9.6-17.6t19.2-4.8q20.4,0,20.4,13.6,0,10-7.6,46.4-9.6,44-9.6,59.6,0,12,3.2,18.4t10.8,6.4q7.2,0,18-10t28.8-31.6q4.8-5.6,10.8-5.6a9.243,9.243,0,0,1,8.2,4.8q3,4.8,3,13.2,0,16-7.6,24.8Q1093.2,523,1058.8,523Zm125.6,0q-39.2,0-61-22.2t-21.8-58.6q0-32.4,12.8-56.8t33.2-37.6q20.4-13.2,42.8-13.2,22,0,34.2,13t12.2,33.4q0,16.8-7.4,28.4T1210,421q-7.6,0-12.2-3.6a11.986,11.986,0,0,1-4.6-10,29.89,29.89,0,0,1,.8-6.4q.8-3.6,1.2-5.2a35.54,35.54,0,0,0,2-11.2q0-5.2-2.6-8t-7.4-2.8q-9.2,0-17.2,8.2t-12.8,22.2a94.449,94.449,0,0,0-4.8,30.8q0,46.4,40.4,46.4,16.4,0,35.4-11t37.4-33q4.8-5.6,10.8-5.6a9.243,9.243,0,0,1,8.2,4.8q3,4.8,3,13.2,0,15.2-7.6,24.8a129.749,129.749,0,0,1-45,35.8Q1208.8,523,1184.4,523Zm112.8,0q-22.8,0-37-18T1246,457.8a130.038,130.038,0,0,1,14.8-60.6q14.8-28.6,39.4-46t52.2-17.4q8.8,0,11.8,3.4t5,12.2a81.7,81.7,0,0,1,16.8-1.6q9.6,0,14.8,4.8t5.2,13.6q0,9.2-4,32-4.4,24.4-6.8,46.6a466.788,466.788,0,0,0-2.4,49.8q0,15.2-6.2,21.8t-20.2,6.6q-13.6,0-20.2-6.6t-6.6-21.4l.4-6.4Q1327.6,523,1297.2,523Zm15.6-40.4q11.2,0,20.4-15.6t16.4-55.6l7.6-40.4q-16.4.4-30.4,12.6t-22.4,32.2a108.379,108.379,0,0,0-8.4,42.4q0,12,4.6,18.2A14.458,14.458,0,0,0,1312.8,482.6Z" transform="translate(-380.8 -145)"/></svg>