<svg xmlns="http://www.w3.org/2000/svg" width="898.523" height="331.531" viewBox="0 0 898.523 331.531">
  <g id="Relica" transform="translate(-18.675 -127)">
    <path id="Path_229" data-name="Path 229" d="M362,407c14.4-4.057,28.894-8.034,42-15.5,11.146-6.352,20.609-15.1,26.677-26.5,10.543-19.813,8.86-49.31-9.716-63.75C412.5,294.673,402.41,293,392,293c-21.781,0-40.908,7.836-55.91,24-9.462,10.2-16.4,23.606-19.973,37A112.4,112.4,0,0,0,314,404c-9.613,4.278-16.265,11.24-27.576,11.147-16.465-.136-26.919-15.283-34.274-28.147-8.547-14.952-14.228-32.725-27.24-44.7-5.888-5.419-12.756-8.113-19.91-11.3,6.862-3.042,14.184-4.913,21-8.12,16.564-7.793,32.163-19.6,42.48-34.88,19.415-28.751,22.328-71.739-1.664-99-12.122-13.773-29.174-21.627-46.816-25.575C157.264,149.387,87.118,171.056,51.079,226,31.155,256.375,23.234,290.377,19.83,326c-2.728,28.553-1.267,59.758,11.428,86C44.638,439.656,67.671,458,99,458c13.287,0,25.667-2.917,34.1-14,9.641-12.671,11.454-28.749,13.98-44,2.921-17.635,6.668-35.274,8.92-53,15.494,1.353,23.947,14.655,31,27,13.6,23.809,22.268,52.569,44,70.674,19.5,16.248,50.31,17.2,73,7.453a82.051,82.051,0,0,0,17-10.363c2.167-1.648,5.03-4.874,8-4.748,3.612.154,7.2,4.957,10,6.941a71.912,71.912,0,0,0,22,10.615C399.6,465.51,441.947,451.82,470,424c1.22,6.758,5.648,12.946,10.174,18,26.51,29.6,69.459,14.146,94.826-8,2.215,5.32,4.808,10.72,9.093,14.7,14.5,13.462,38.775,11.249,54.907,2.262a102.228,102.228,0,0,0,16-11.236c2.131-1.792,4.888-5.109,7.985-4.843,3.76.322,7.348,5.678,10.03,7.973A56.98,56.98,0,0,0,692,453.484c20.517,6.9,43.795,6.049,64-1.549,10.361-3.9,19.39-9.605,29-14.935,13.185,31.139,62.9,26.528,72-5,1.883,6.356,1,13.428,5.419,18.956,7.855,9.817,30.916,10.425,38.448-.13,6.343-8.89,3.343-20.737,4.3-30.826,2.427-25.508,4.706-50.619,8.91-76,1.591-9.6,6.042-24.165.192-32.985-6.745-10.169-20.2-6.448-30.272-6.015-1.828-12.194-10.065-13.664-21-12.91-17.348,1.194-32.6,8.918-46,19.576-18.711,14.881-30.877,36.64-37.29,59.334a110.16,110.16,0,0,0-3.54,19c-.332,3.412.219,6.947-1.773,9.961-3.158,4.774-9.524,8.379-14.4,11.166-14.217,8.134-32.547,14-48,5.521-22.888-12.566-19.847-48.476-10.215-68.648,3.886-8.138,11.309-18.9,21.215-19.792,6.921-.626,10.5,5.583,9.7,11.792-1.247,9.67-7.313,22.886,5.3,27.852a16.209,16.209,0,0,0,5,1.04,22.046,22.046,0,0,0,8-1.117c11-3.574,16.056-16.139,17-26.775,1.7-19.157-4.16-38.792-24-45.91-5.928-2.126-11.794-2.09-18-2.09-39.4,0-68.4,35.346-74.565,72A118.82,118.82,0,0,0,650,385c0,3.774.688,8.391-.6,12-2.116,5.932-8.533,11.414-13.4,15.1-3.481,2.637-8.353,6.586-13,6.343-13.931-.729-11.035-23.676-10.05-32.443,2.272-20.228,7.948-39.946,11.3-60,1.207-7.229,4.766-17.884,2.011-25-3.733-9.636-18.879-9.279-27.258-7.486-12.521,2.679-14.92,14.75-18,25.482-4.683,16.319-7.7,33.2-10,50-1.1,8.042.032,19.265-4.863,26C556.672,408.025,532.9,426.6,516.007,416c-6.039-3.788-12.742-14.5-11.492-22.005.964-5.781,6.634-11.276,9.818-16,7.084-10.509,13.95-21.132,20.47-32C562.315,300.141,589,244.621,589,190c0-20.161-1.02-48.178-21-59.633C563.008,127.5,557.628,127,552,127c-27.458,0-43.781,23.98-55.216,46-22.992,44.276-32.849,96.757-37.614,146-1.4,14.435-2.766,29.488-2.131,44,.3,6.907,3.722,17.473,1.1,23.985-2.646,6.57-11.6,12.332-17.138,16.375a139.023,139.023,0,0,1-12,7.628C409.912,422.133,375.818,430.707,362,407Z" fill="#fff"/>
    <path id="Path_230" data-name="Path 230" d="M501,343c7.691-9.187,12.231-21.456,17.781-32,16.5-31.351,30.19-66.579,34.169-102,1.259-11.208,2.478-23.844.242-35-.819-4.089-2.382-10.034-7.207-11.029-4.661-.962-8.288,4.624-10.189,8.029-5.51,9.87-8.728,20.309-12.14,31C509.459,246.477,501,296.313,501,343m-394,3c-4.141-.086-8.418-.4-12-2.728-9.407-6.126-11.558-19.866-3.79-28.167C97.151,308.76,105,309,113,309c1.946-15.073,5.371-30.016,7.919-45,1.626-9.56,2.777-20.372,9.41-27.957,9.23-10.555,34.725-14.319,41.585.961,3.633,8.091.865,17.739-.717,26-2.918,15.22-6.244,30.631-8.2,46,19.4-2.451,38.233-7.956,51.826-23,20.97-23.215,22.955-66.1-8.826-81.106-12.588-5.942-26.375-6.46-40-5.929a113.181,113.181,0,0,0-35,6.583C79.581,224.287,58.6,284.518,58,335c-.258,21.715.145,43.821,9.309,64,3.107,6.842,9.159,17.313,17.688,17.752,7.566.39,10.5-8.834,11.789-14.752C100.822,383.481,103.491,364.626,107,346Z" fill="currentColor"/>
    <path id="Path_231" data-name="Path 231" d="M612,215.44c-16.969,2.727-28.228,16.418-25.995,33.56.622,4.781,1.871,9.272,5.209,12.907,7.743,8.432,21.079,9.336,31.786,7.793,19.152-2.761,35.144-27.4,21.606-44.7C637.109,215.426,623.376,213.612,612,215.44Z" fill="#fff"/>
    <path id="Path_232" data-name="Path 232" d="M858,328.981c-20.886,10.172-32.381,34.068-36.079,56.019-1.494,8.863-3.247,23.054,2.074,30.906,5.1,7.526,14.5,7.018,20.965,1.7,7.919-6.512,11.311-17.222,14.37-26.61a221.725,221.725,0,0,0,6.07-25c2.723-13.536,5.832-27.312,7.6-41M355,379c15.154-4.268,34.043-10.453,41.1-26,2.326-5.129,3.9-11.563,1.756-17-3.217-8.17-13.495-9.991-20.852-6.313-8.215,4.108-13.775,12.99-16.934,21.312C356.56,360.233,356.765,369.492,355,379Z" fill="currentColor"/>
  </g>
</svg>
