<svg width="32" height="32" viewBox="0 0 32 32" fill="none" xmlns="http://www.w3.org/2000/svg">
<g clip-path="url(#clip0)">
<path d="M32.0001 5.97086C30.8359 6.48678 29.5604 6.79301 28.2959 6.94245C29.6276 6.1452 30.6132 4.89751 31.0892 3.42043C29.837 4.16336 28.5186 4.71771 27.0902 4.99927C25.8558 3.68658 24.1972 2.99536 22.5271 2.99536C20.8875 2.99536 19.321 3.54829 18.065 4.72957C16.7689 5.94832 16.0322 7.63438 16.0296 9.37143C16.0289 9.85485 16.1076 10.3421 16.2196 10.8243C11.0907 10.5672 6.33429 8.13417 3.09526 4.14913C2.50818 5.15986 2.18368 6.27614 2.18439 7.36752C2.18582 9.42314 3.20746 11.4278 5.03844 12.6505C4.0232 12.6204 3.01081 12.4164 2.12367 11.9219V12.0381C2.12462 15.0745 4.3088 17.5752 7.28525 18.1765C6.75936 18.32 6.0774 18.4215 5.52969 18.4215C5.52779 18.4215 5.5259 18.4215 5.52424 18.4215C5.09608 18.4208 4.66793 18.3786 4.24902 18.2979C5.0847 20.8965 7.65315 22.801 10.3822 22.8523C8.12353 24.6275 4.61337 25.4634 2.42776 25.4634C1.92015 25.4625 1.413 25.4629 0.90918 25.4027C3.81945 27.2702 7.20483 28.2567 10.6623 28.2567H10.6865V28.2617C22.3449 28.2617 28.8424 18.5387 28.8424 10.1091C28.8424 9.83303 28.8004 9.52348 28.7817 9.24998C30.0301 8.34694 31.1435 7.25176 32.0001 5.97086ZM25.3724 15.6441C24.6569 17.5403 23.6289 19.2539 22.3169 20.7373C20.9257 22.3102 19.2778 23.5451 17.4196 24.4074C15.5075 25.2945 13.3959 25.7713 11.137 25.827L10.6823 25.8277H10.6623C10.5309 25.8277 10.3997 25.8261 10.2688 25.8228C10.8402 25.5073 11.3841 25.1541 11.883 24.762C13.1369 23.5973 13.6964 22.1219 13.9042 20.489C13.9042 20.489 12.8821 20.6133 11.7181 20.6054C10.8163 20.5993 9.8295 20.5253 9.16628 20.1811C10.8168 19.4391 11.6842 18.209 12.0372 16.6584C10.6251 16.7798 7.34597 16.0511 6.16967 15.1142C7.46742 14.6545 8.68191 13.6829 9.1677 12.8934C9.1677 12.8934 6.86017 11.8004 5.23129 9.45706C8.39513 11.7145 12.1629 13.0531 16.0981 13.2502L19.3087 13.3792L18.6445 10.529L18.5205 9.96373C18.4787 9.73459 18.4583 9.54032 18.4585 9.37498C18.46 8.30519 18.9232 7.25675 19.729 6.49888C20.4871 5.78584 21.4286 5.42434 22.5271 5.42434C23.3386 5.42434 24.1398 5.70187 24.805 6.20142C25.8669 7.12462 26.4134 8.33911 26.4134 10.1091C26.4134 11.9254 26.0534 13.8394 25.3724 15.6441Z" fill="white"/>
</g>
<defs>
<clipPath id="clip0">
<rect width="31.0909" height="31.0909" fill="white" transform="translate(0.90918 0.0805664)"/>
</clipPath>
</defs>
</svg>
